<svg height='100px' width='100px'  fill="#ffffff" xmlns="http://www.w3.org/2000/svg" xmlns:xlink="http://www.w3.org/1999/xlink" version="1.1" x="0px" y="0px" viewBox="206 206 100 100" enable-background="new 206 206 100 100" xml:space="preserve"><g><path d="M256.002,248.233c-3.031,0-5.497,2.464-5.497,5.493c0,1.589,0.682,3.089,1.877,4.134v7.913c0,0.005,0,0.011,0,0.016   c0.009,1.988,1.629,3.601,3.62,3.601c1.994,0,3.618-1.623,3.618-3.616v-7.909c1.193-1.05,1.876-2.549,1.876-4.137   C261.495,250.698,259.031,248.233,256.002,248.233z M259.173,257.531c-0.062,0.053-0.097,0.128-0.097,0.209v8.033   c0,1.694-1.38,3.073-3.074,3.073c-1.697,0-3.078-1.379-3.078-3.075c0-0.005,0-0.011-0.001-0.017v-8.02   c0-0.08-0.035-0.157-0.097-0.208c-1.131-0.944-1.779-2.33-1.779-3.801c0-2.729,2.222-4.95,4.954-4.95   c2.73,0,4.951,2.221,4.951,4.95C260.952,255.195,260.304,256.582,259.173,257.531z"></path><path d="M276.095,242.698v-10.64c0-11.079-9.015-20.093-20.094-20.093c-11.08,0-20.094,9.014-20.094,20.093v10.64   c-2.261,1.225-3.801,3.619-3.801,6.365v19.495c0,3.959,3.198,7.185,7.146,7.232v3.895c0,0.149,0.122,0.271,0.271,0.271h6.787v4.709   h-7.671c-0.136-1.291-1.232-2.303-2.561-2.303c-1.42,0-2.575,1.154-2.575,2.574c0,1.421,1.155,2.575,2.575,2.575   c1.328,0,2.424-1.011,2.56-2.302h7.944c0.15,0,0.271-0.122,0.271-0.273v-4.98h3.216v8.164l-5.862,4.481   c-0.457-0.414-1.061-0.669-1.725-0.669c-1.42,0-2.575,1.155-2.575,2.574c0,1.42,1.155,2.576,2.575,2.576   c1.419,0,2.575-1.156,2.575-2.576c0-0.56-0.182-1.077-0.487-1.5l5.935-4.537c0.067-0.051,0.107-0.132,0.107-0.216v-8.298h4.313   v2.77c-1.292,0.137-2.302,1.232-2.302,2.56c0,1.42,1.155,2.575,2.575,2.575s2.576-1.155,2.576-2.575   c0-1.328-1.012-2.425-2.306-2.56v-2.77h4.657v10.931c0,0.071,0.028,0.14,0.079,0.191l4.835,4.837   c-0.326,0.432-0.522,0.968-0.522,1.549c0,1.42,1.156,2.576,2.574,2.576c1.421,0,2.576-1.156,2.576-2.576   c0-1.419-1.155-2.574-2.576-2.574c-0.642,0-1.229,0.238-1.681,0.629l-4.743-4.745v-10.817h3.072v8.41   c0,0.149,0.121,0.271,0.271,0.271h9.336c0.005,0,0.012-0.001,0.019-0.001c0.136,1.293,1.231,2.303,2.56,2.303   c1.421,0,2.576-1.155,2.576-2.574c0-1.42-1.155-2.576-2.576-2.576c-1.329,0-2.426,1.014-2.561,2.309   c-0.007-0.001-0.014-0.002-0.021-0.002h-9.061v-8.14h8.196c0.149,0,0.271-0.122,0.271-0.271v-3.895   c3.948-0.046,7.146-3.271,7.146-7.232v-10.036c0-0.001,0-0.003,0-0.004v-3.675c0,0,0-0.001,0-0.002v-3.677c0,0,0,0,0-0.001v-2.099   C279.897,246.317,278.358,243.923,276.095,242.698z M236.076,286.969c-1.121,0-2.032-0.912-2.032-2.032s0.912-2.031,2.032-2.031   s2.032,0.911,2.032,2.031C238.11,286.057,237.197,286.969,236.076,286.969z M242.481,296.541c-1.121,0-2.032-0.912-2.032-2.033   c0-1.12,0.911-2.031,2.032-2.031s2.032,0.911,2.032,2.031C244.513,295.629,243.602,296.541,242.481,296.541z M267.091,295.432   c1.12,0,2.032,0.911,2.032,2.032c0,1.12-0.912,2.031-2.032,2.031c-1.119,0-2.031-0.911-2.031-2.031   C265.06,296.344,265.972,295.432,267.091,295.432z M275.925,286.333c1.12,0,2.032,0.912,2.032,2.032   c0,1.121-0.912,2.032-2.032,2.032c-1.121,0-2.031-0.911-2.031-2.032C273.894,287.245,274.805,286.333,275.925,286.333z    M236.449,232.059c0-10.781,8.771-19.551,19.551-19.551s19.551,8.77,19.551,19.551v10.375c-0.885-0.388-1.862-0.605-2.89-0.605   h-2.137v-9.771c0-8.009-6.516-14.524-14.526-14.524c-8.008,0-14.524,6.515-14.524,14.524v9.771h-2.136   c-1.027,0-2.004,0.217-2.891,0.605L236.449,232.059L236.449,232.059z M269.983,232.058v9.771h-27.964v-9.771   c0-7.709,6.272-13.98,13.982-13.98C263.709,218.078,269.983,224.349,269.983,232.058z M257.23,285.286   c0,1.121-0.912,2.033-2.033,2.033c-1.121,0-2.032-0.912-2.032-2.033c0-1.119,0.91-2.03,2.029-2.032c0.001,0,0.001,0,0.001,0   c0.001,0,0.002,0,0.003,0C256.319,283.254,257.23,284.166,257.23,285.286z M272.206,279.414h-32.412V275.8h32.412V279.414z    M279.354,251.051l-2.931,2.931c-0.107,0.106-0.107,0.278,0,0.384c0.052,0.053,0.122,0.08,0.191,0.08s0.139-0.026,0.192-0.08   l2.547-2.546v2.91l-4.93,4.929c-0.105,0.105-0.105,0.278,0,0.384c0.054,0.054,0.123,0.079,0.192,0.079s0.14-0.025,0.191-0.079   l4.546-4.545v2.912l-3.121,3.121c-0.107,0.105-0.107,0.278,0,0.384c0.052,0.054,0.122,0.079,0.191,0.079   c0.068,0,0.139-0.025,0.192-0.079l2.737-2.737v2.91l-6.926,6.924c-0.105,0.107-0.105,0.278,0,0.384   c0.054,0.054,0.124,0.081,0.192,0.081c0.069,0,0.14-0.027,0.191-0.081l6.542-6.54v2.91l-0.902,0.902   c-0.105,0.105-0.105,0.276,0,0.384c0.054,0.052,0.124,0.079,0.192,0.079c0.07,0,0.14-0.027,0.191-0.079l0.519-0.517v2.024   c0,3.69-3.002,6.691-6.691,6.691h-2.025l6.489-6.491c0.105-0.105,0.105-0.277,0-0.384c-0.106-0.105-0.278-0.105-0.384,0   l-6.874,6.875h-2.91l4.025-4.023c0.105-0.107,0.105-0.278,0-0.384c-0.107-0.107-0.278-0.107-0.384,0l-4.409,4.407h-2.176   c-0.001,0-0.004,0-0.005,0c-0.002,0-0.003,0-0.004,0h-0.727l11.703-11.703c0.106-0.107,0.106-0.278,0-0.384   c-0.106-0.107-0.277-0.107-0.385,0l-12.087,12.087h-2.11c-0.002,0-0.003,0-0.005,0s-0.004,0-0.005,0h-0.79l3.724-3.722   c0.106-0.105,0.106-0.277,0-0.384c-0.105-0.105-0.277-0.105-0.384,0l-4.107,4.106h-2.911l18.695-18.695   c0.107-0.106,0.107-0.278,0-0.384c-0.105-0.106-0.276-0.106-0.384,0l-19.08,19.079h-4.809c-0.002,0-0.004,0-0.005,0   s-0.003,0-0.005,0h-3.749c-0.001,0-0.003,0-0.004,0c-0.002,0-0.004,0-0.006,0h-7.236c-3.689,0-6.69-3.001-6.69-6.691v-2.767   c0.06-0.005,0.119-0.028,0.166-0.074l9.99-9.99c0.106-0.105,0.106-0.278,0-0.384c-0.105-0.106-0.278-0.106-0.384,0l-9.771,9.771   v-2.91l4.012-4.01c0.105-0.107,0.105-0.278,0-0.384c-0.106-0.107-0.278-0.107-0.385,0l-3.627,3.626v-2.911l8.013-8.012   c0.106-0.106,0.106-0.278,0-0.384c-0.105-0.106-0.277-0.106-0.384,0l-7.629,7.627v-2.908l5.774-5.774   c0.106-0.106,0.106-0.278,0-0.384c-0.106-0.106-0.278-0.106-0.384,0l-5.39,5.39v-2.91l7.648-7.649c0.106-0.106,0.106-0.278,0-0.384   c-0.106-0.106-0.277-0.106-0.384,0l-7.265,7.265v-1.339c0-3.69,3.001-6.69,6.69-6.69h5.018l-4.253,4.252   c-0.106,0.105-0.106,0.278,0,0.384c0.054,0.053,0.123,0.08,0.192,0.08c0.07,0,0.139-0.027,0.192-0.08l4.636-4.636h6.589   l-13.607,13.607c-0.106,0.105-0.106,0.278,0,0.384c0.053,0.053,0.123,0.08,0.192,0.08c0.07,0,0.139-0.027,0.192-0.08l13.991-13.991   h2.909l-2.24,2.24c-0.105,0.105-0.105,0.278,0,0.384c0.053,0.053,0.123,0.08,0.192,0.08c0.07,0,0.139-0.027,0.192-0.08l2.624-2.624   h16.503c3.689,0,6.691,3,6.691,6.69V251.051L279.354,251.051z"></path><path d="M272.362,261.723l-7.224,7.222c-0.105,0.105-0.105,0.278,0,0.384c0.054,0.054,0.123,0.079,0.192,0.079   s0.14-0.025,0.191-0.079l7.224-7.222c0.105-0.107,0.105-0.278,0-0.384C272.638,261.616,272.467,261.616,272.362,261.723z"></path><path d="M242.103,248.961c0.07,0,0.139-0.027,0.192-0.08l5.358-5.358c0.106-0.106,0.106-0.278,0-0.384   c-0.105-0.106-0.277-0.106-0.384,0l-5.358,5.358c-0.106,0.106-0.106,0.278,0,0.384   C241.964,248.934,242.033,248.961,242.103,248.961z"></path><path d="M251.522,246.626c-0.106-0.106-0.278-0.106-0.384,0l-7.008,7.008c-0.106,0.106-0.106,0.278,0,0.384   c0.053,0.053,0.123,0.08,0.192,0.08s0.139-0.027,0.192-0.08l7.008-7.008C251.628,246.904,251.628,246.732,251.522,246.626z"></path></g></svg>