<svg height='100px' width='100px'  fill="#ffffff" xmlns="http://www.w3.org/2000/svg" xmlns:xlink="http://www.w3.org/1999/xlink" version="1.1" x="0px" y="0px" viewBox="0 0 96 96" enable-background="new 0 0 96 96" xml:space="preserve"><g><path d="M57.4905,39.5585v-6.6847l0.4595-0.8421l-0.4595-0.2506V11.3382h5.2348V1H29.2428v10.3381h5.2348V33.856l-1.4611,0.9808   l1.091,1.6256l0.3701-0.2484v3.3447l-24.4304,45.93C7.7574,89.7977,10.8763,95,15.7635,95h60.4406   c4.8882,0,8.0063-5.2025,5.7158-9.512L57.4905,39.5585z M31.2012,9.3798V7.148h11.5109V5.1897H31.2012V2.9584h29.5658v6.4215   h-3.2765H34.4776H31.2012z M36.436,40.0472v-28.709h19.0961v28.709l7.8796,14.8144c-2.7268,1.7355-12.7014,7.4558-19.0348,2.7035   c-6.5805-4.9375-11.7775-5.3662-14.5527-5.0874L36.436,40.0472z M76.2041,93.0417H15.7635c-3.4047,0-5.5863-3.6246-3.9869-6.6338   l16.8837-31.7421c1.323-0.3637,6.8018-1.341,14.5414,4.4655c2.1883,1.6423,4.6745,2.2562,7.1712,2.2562   c5.8384-0.0008,11.7263-3.3591,13.9645-4.7858l15.8532,29.8057C81.791,89.4178,79.6082,93.0417,76.2041,93.0417z"></path><rect x="26.2943" y="65.2765" width="1.9583" height="8.9172"></rect><path d="M37.5007,64.8644h-6.3675v9.7415h6.3675V64.8644z M35.5424,72.6475h-2.4508v-5.8248h2.4508V72.6475z"></path><rect x="40.3809" y="65.2765" width="1.9583" height="8.9172"></rect><path d="M51.5868,64.8644h-6.367v9.7415h6.367V64.8644z M49.6284,72.6475h-2.4503v-5.8248h2.4503V72.6475z"></path><rect x="54.4674" y="65.2765" width="1.9583" height="8.9172"></rect><path d="M65.6733,64.8644h-6.3675v9.7415h6.3675V64.8644z M63.715,72.6475h-2.4508v-5.8248h2.4508V72.6475z"></path><rect x="28.1102" y="80.1456" width="1.9583" height="8.9172"></rect><path d="M33.1045,89.475h6.3675v-9.7415h-6.3675V89.475z M35.0629,81.6919h2.4508v5.8248h-2.4508V81.6919z"></path><path d="M18.7068,89.475h6.3675v-9.7415h-6.3675V89.475z M20.6651,81.6919h2.4508v5.8248h-2.4508V81.6919z"></path><rect x="42.5075" y="80.1456" width="1.9583" height="8.9172"></rect><path d="M47.5018,89.475h6.3675v-9.7415h-6.3675V89.475z M49.4601,81.6919h2.4508v5.8248h-2.4508V81.6919z"></path><rect x="56.9052" y="80.1456" width="1.9583" height="8.9172"></rect><path d="M61.8996,89.475h6.3675v-9.7415h-6.3675V89.475z M63.8579,81.6919h2.4508v5.8248h-2.4508V81.6919z"></path><rect x="71.303" y="80.1456" width="1.9583" height="8.9172"></rect><rect x="39.7062" y="21.585" width="1.9583" height="15.6538"></rect><rect x="39.7062" y="15.3022" width="1.9583" height="3.7565"></rect><rect x="75.7198" y="68.6898" transform="matrix(-0.4781 -0.8783 0.8783 -0.4781 54.7356 171.861)" width="5.4126" height="1.9585"></rect><rect x="69.9231" y="45.257" transform="matrix(-0.8784 0.478 -0.478 -0.8784 159.8765 71.0161)" width="1.9585" height="21.1868"></rect><rect x="11.2584" y="68.6898" transform="matrix(-0.4782 0.8782 -0.8782 -0.4782 81.8296 90.7208)" width="5.4129" height="1.9585"></rect><rect x="10.895" y="54.8711" transform="matrix(-0.4782 0.8783 -0.8783 -0.4782 80.8149 63.6845)" width="21.1868" height="1.9585"></rect><rect x="79.601" y="25.6125" transform="matrix(0.7776 0.6287 -0.6287 0.7776 34.6385 -44.7503)" width="1.9589" height="1.9582"></rect><rect x="74.6761" y="31.704" transform="matrix(-0.7776 -0.6287 0.6287 -0.7776 113.9377 105.6654)" width="1.9589" height="1.9582"></rect><rect x="84.526" y="19.5213" transform="matrix(-0.7776 -0.6287 0.6287 -0.7776 139.1069 90.2021)" width="1.9589" height="1.9582"></rect><rect x="72.2133" y="34.7495" transform="matrix(-0.7776 -0.6287 0.6287 -0.7776 107.645 109.5308)" width="1.9589" height="1.9582"></rect><rect x="82.0633" y="22.5669" transform="matrix(-0.7776 -0.6287 0.6287 -0.7776 132.8142 94.0677)" width="1.9589" height="1.9582"></rect><rect x="77.1383" y="28.6585" transform="matrix(-0.7776 -0.6287 0.6287 -0.7776 120.2295 101.7997)" width="1.9589" height="1.9582"></rect><rect x="86.9883" y="16.4752" transform="matrix(-0.7776 -0.6287 0.6287 -0.7776 145.399 86.3356)" width="1.9589" height="1.9582"></rect><rect x="59.0805" y="33.3187" transform="matrix(0.8778 0.4791 -0.4791 0.8778 23.771 -24.5802)" width="1.9581" height="1.9585"></rect><rect x="62.5186" y="35.1942" transform="matrix(-0.479 0.8778 -0.8778 -0.479 125.6649 -2.2422)" width="1.9585" height="1.9583"></rect><rect x="23.6406" y="40.6746" transform="matrix(-0.8303 0.5573 -0.5573 -0.8303 68.2764 62.5158)" width="1.9584" height="1.9578"></rect><rect x="26.8926" y="38.4912" transform="matrix(-0.8302 0.5575 -0.5575 -0.8302 73.0139 56.7015)" width="1.958" height="1.9583"></rect><rect x="30.1443" y="36.308" transform="matrix(-0.8303 0.5573 -0.5573 -0.8303 77.7464 50.8989)" width="1.9584" height="1.9578"></rect><path d="M17.1045,43.3726c-0.1369,0.3667-0.2222,0.7588-0.2222,1.1726c0,1.8618,1.5146,3.3764,3.3759,3.3764   c1.8613,0,3.3759-1.5146,3.3759-3.3764c0-1.8613-1.5146-3.3759-3.3759-3.3759c-0.736,0-1.4124,0.2434-1.9678,0.6448l-0.9085-0.6807   l-1.1742,1.5672L17.1045,43.3726z M20.2582,43.1276c0.7817,0,1.4176,0.6359,1.4176,1.4176s-0.6359,1.4181-1.4176,1.4181   s-1.4176-0.6364-1.4176-1.4181S19.4765,43.1276,20.2582,43.1276z"></path><rect x="7.1953" y="34.4801" transform="matrix(0.5996 -0.8003 0.8003 0.5996 -25.1048 20.7395)" width="1.9583" height="1.9583"></rect><rect x="13.4648" y="39.1766" transform="matrix(-0.8003 -0.5996 0.5996 -0.8003 1.9255 80.9529)" width="1.9583" height="1.9583"></rect><rect x="10.3299" y="36.8286" transform="matrix(-0.8004 -0.5995 0.5995 -0.8004 -2.3045 74.8481)" width="1.9587" height="1.9583"></rect><rect x="4.0608" y="32.1315" transform="matrix(-0.8003 -0.5996 0.5996 -0.8003 -10.78 62.631)" width="1.9583" height="1.9583"></rect><path d="M70.0958,42.5754c1.8613,0,3.3759-1.5146,3.3759-3.3759c0-1.8613-1.5146-3.3759-3.3759-3.3759   c-1.1047,0-2.0782,0.5409-2.6946,1.3634l-0.8554-0.4665l-0.938,1.7193l1.1263,0.6142c-0.0022,0.0493-0.0147,0.0957-0.0147,0.1455   C66.7194,41.0608,68.234,42.5754,70.0958,42.5754z M70.0958,37.7819c0.7817,0,1.4176,0.6359,1.4176,1.4176   s-0.6359,1.4176-1.4176,1.4176s-1.4181-0.6359-1.4181-1.4176S69.3141,37.7819,70.0958,37.7819z"></path><polygon points="87.3436,14.3211 89.2419,14.3211 89.0533,14.5544 90.3724,15.621 90.3724,17.3499 92.3307,17.3499    92.3307,12.3628 87.3436,12.3628  "></polygon><rect x="45.0759" y="5.1897" width="2.4063" height="1.9583"></rect><rect x="58.5823" y="20.107" transform="matrix(0.8909 -0.4541 0.4541 0.8909 -3.0798 29.3487)" width="1.9582" height="1.9586"></rect><rect x="65.561" y="16.5501" transform="matrix(-0.454 -0.891 0.891 -0.454 81.1338 84.7744)" width="1.9586" height="1.9582"></rect><rect x="62.0715" y="18.3284" transform="matrix(-0.454 -0.891 0.891 -0.454 74.4753 84.2514)" width="1.9586" height="1.9586"></rect><rect x="25.2559" y="19.5013" transform="matrix(-0.7015 -0.7127 0.7127 -0.7015 30.0423 53.5446)" width="1.9589" height="1.9582"></rect><rect x="22.4647" y="22.2489" transform="matrix(-0.7015 -0.7127 0.7127 -0.7015 23.3349 56.2304)" width="1.9589" height="1.9582"></rect><rect x="19.673" y="24.9961" transform="matrix(0.7015 0.7127 -0.7127 0.7015 24.6778 -6.9646)" width="1.9589" height="1.9582"></rect><rect x="31.5325" y="19.169" transform="matrix(0.8726 0.4885 -0.4885 0.8726 13.9863 -13.3148)" width="1.9583" height="1.9581"></rect><polygon points="27.6417,17.7219 28.4425,18.5356 28.2479,18.8832 29.4704,19.5674 30.4266,17.8586 28.563,16.8154  "></polygon><rect x="16.8818" y="27.7438" transform="matrix(0.7015 0.7127 -0.7127 0.7015 25.8029 -4.155)" width="1.9589" height="1.9582"></rect><polygon points="67.1578,15.1578 68.8807,15.6517 69.442,16.7532 68.9646,18.418 70.8474,18.9573 72.1134,14.5415 67.6981,13.275     "></polygon></g></svg>