<svg height='100px' width='100px'  fill="#ffffff" xmlns="http://www.w3.org/2000/svg" xmlns:xlink="http://www.w3.org/1999/xlink" version="1.1" x="0px" y="0px" viewBox="206 206 100 100" enable-background="new 206 206 100 100" xml:space="preserve"><g><path d="M297.698,249.792C297.698,249.792,297.698,249.792,297.698,249.792c-0.001-0.002-0.001-0.003-0.002-0.004   c-0.234-0.598-0.503-1.208-0.797-1.812c-0.181-0.369-0.367-0.736-0.553-1.091c-0.514-0.969-1.053-1.865-1.604-2.664   c-0.619-0.9-1.268-1.697-1.926-2.365c-0.001,0-0.001,0-0.001-0.001c-0.001,0-0.001,0-0.001-0.001c0,0-0.001,0-0.001,0   c-2.272-2.313-4.74-3.256-7.339-2.811c-4.557-5.905-13.946-14.253-26.405-5.366c-3.22-1.813-8.146-2.757-13.606,2.704   c-1.391,1.389-2.304,2.769-2.721,4.105c-0.598,0.153-1.18,0.322-1.737,0.503v-8.443c0-0.157-0.127-0.284-0.285-0.284   c-0.157,0-0.284,0.127-0.284,0.284v15.873h-7.708v-7.993c1.348-0.142,2.401-1.285,2.402-2.67c0-1.48-1.205-2.686-2.685-2.686   c-1.481,0-2.685,1.205-2.685,2.686c0,1.384,1.052,2.526,2.399,2.669v8.278c0,0.157,0.127,0.284,0.284,0.284h7.993v3.352h-13.937   l-6.132-6.136c0.418-0.474,0.674-1.093,0.674-1.772c0-1.48-1.205-2.685-2.685-2.685s-2.685,1.205-2.685,2.685   c0,1.48,1.205,2.685,2.685,2.685c0.596,0,1.146-0.198,1.592-0.528l6.233,6.236c0.053,0.053,0.125,0.083,0.201,0.083h14.054v4.494   h-7.723c-0.143-1.348-1.285-2.401-2.67-2.401c-1.48,0-2.686,1.205-2.686,2.685c0,1.48,1.205,2.687,2.686,2.687   c1.385,0,2.528-1.055,2.67-2.402h7.723v4.851h-17.739c-0.075,0-0.147,0.029-0.2,0.083l-5.043,5.039   c-0.45-0.34-1.008-0.544-1.613-0.544c-1.481,0-2.686,1.205-2.686,2.686s1.205,2.685,2.686,2.685c1.48,0,2.685-1.204,2.685-2.685   c0-0.671-0.249-1.282-0.657-1.754l4.946-4.942h17.621v3.199h-13.604c-0.157,0-0.284,0.128-0.284,0.284v9.731   c0,0.006,0.001,0.013,0.002,0.02c-1.348,0.143-2.402,1.284-2.402,2.67c0,1.48,1.205,2.685,2.685,2.685   c1.481,0,2.686-1.204,2.686-2.685c0-1.386-1.055-2.529-2.404-2.67c0-0.008,0.001-0.015,0.001-0.021v-9.446h13.32v14.766   c0,0.156,0.126,0.283,0.284,0.283s0.285-0.127,0.285-0.283v-7.36c3.49,2.847,6.685,3.853,9.455,3.853   c4.51,0,7.893-2.661,9.597-4.366c0.274,0.003,0.556,0.004,0.846,0.004c1.523,0,2.994-0.045,4.373-0.134   c0.01-0.001,0.021-0.002,0.031-0.004c1.674-0.108,3.27-0.286,4.74-0.526c2.182-0.357,4.117-0.859,5.755-1.492   c0.001,0,0.002-0.001,0.003-0.001s0.001,0,0.002-0.002c3.937-1.526,6.232-3.834,6.823-6.857c0.011-0.054,0.019-0.102,0.027-0.149   h0.073c4.229-0.044,11.773-0.789,14.812-5.295C299.223,257.099,299.275,253.803,297.698,249.792z M230.33,237.757   c0-1.167,0.95-2.117,2.117-2.117s2.117,0.95,2.117,2.117c0,1.167-0.95,2.117-2.117,2.117   C231.28,239.874,230.33,238.924,230.33,237.757z M216.241,244.432c0-1.168,0.95-2.117,2.117-2.117s2.117,0.949,2.117,2.117   c0,1.167-0.95,2.117-2.117,2.117S216.241,245.599,216.241,244.432z M230.045,259.803c-1.167,0-2.117-0.949-2.117-2.117   c0-1.167,0.949-2.117,2.117-2.117c1.167,0,2.117,0.95,2.117,2.117l0,0v0.001C232.162,258.854,231.213,259.803,230.045,259.803z    M215.843,272.202c-1.167,0-2.117-0.95-2.117-2.117s0.95-2.116,2.117-2.116s2.117,0.949,2.117,2.116   S217.01,272.202,215.843,272.202z M228.953,279.293c0,1.168-0.95,2.117-2.117,2.117s-2.117-0.949-2.117-2.117   s0.95-2.116,2.117-2.116S228.953,278.125,228.953,279.293z M276.963,270.77l3.159-3.159c0.111-0.11,0.111-0.291,0-0.402   c-0.11-0.11-0.29-0.11-0.402,0l-4.175,4.177c-1.364,0.522-2.942,0.954-4.703,1.285l13.87-13.871c0.112-0.11,0.112-0.29,0-0.401   c-0.11-0.111-0.29-0.111-0.401,0l-14.442,14.442c-1.213,0.195-2.51,0.348-3.868,0.453l5.336-5.335c0.112-0.112,0.112-0.292,0-0.402   c-0.11-0.111-0.29-0.111-0.4,0l-5.801,5.801c-1.126,0.069-2.313,0.11-3.539,0.121l22.7-22.7c0.11-0.11,0.11-0.291,0-0.401   c-0.111-0.111-0.291-0.111-0.402,0l-5.495,5.495c-3.877-1.823-9.377-1.065-12.698-0.329c-1.964-1.454-4.258-3.821-4.337-6.981   c0.004-0.026,0.004-0.052-0.001-0.077c-0.016-0.833,0.133-1.7,0.44-2.578c0.052-0.148-0.025-0.31-0.174-0.362   c-0.147-0.053-0.311,0.025-0.362,0.174c-0.278,0.791-0.433,1.577-0.467,2.342c-1.432-0.783-6.208-3.658-6.726-7.378   c-0.022-0.156-0.167-0.265-0.32-0.243c-0.156,0.022-0.264,0.166-0.242,0.321c0.601,4.323,6.253,7.414,7.29,7.946   c0.133,3.116,2.236,5.476,4.181,7.002c-1.226,0.296-2.031,0.555-2.146,0.593c-0.055,0.021-5.542,2.117-10.695,2.122   c-0.009,0-0.019-0.001-0.028,0c-3.14-0.004-5.499-0.772-7.011-2.284c-0.111-0.111-0.291-0.111-0.401,0   c-0.111,0.111-0.111,0.291,0,0.401c1.597,1.598,4.039,2.419,7.257,2.448c0.395,0.831,2.191,4.929,0.552,7.63   c-1.021,1.682-3.195,2.534-6.465,2.534c-0.157,0-0.284,0.127-0.284,0.284s0.127,0.284,0.284,0.284c3.483,0,5.822-0.945,6.952-2.809   c0.32-0.529,0.523-1.101,0.64-1.686c1.149-0.363,8.247-2.441,13.24,0.038c0.141,0.069,0.312,0.013,0.381-0.128   s0.013-0.312-0.129-0.381c-4.946-2.456-11.624-0.696-13.399-0.155c0.224-2.295-0.717-4.675-1.144-5.615   c5.127-0.118,10.4-2.134,10.441-2.15c0.095-0.03,9.349-3.001,14.943-0.536l-17.183,17.182c-0.271,0-0.539-0.003-0.8-0.005   c-0.021-0.003-0.043-0.003-0.065-0.001c-2.975-0.044-5.063-0.254-5.083-0.257c-0.157-0.015-0.296,0.098-0.312,0.254   c-0.016,0.156,0.098,0.296,0.254,0.313c0.019,0.002,1.827,0.185,4.476,0.246c-2.927,2.736-9.677,7.056-18.25-0.21v-6.935   c0-0.005,0.001-0.011,0.001-0.017c0-0.005-0.001-0.011-0.001-0.016v-3.735c0-0.005,0.001-0.011,0.001-0.017   c0-0.005-0.001-0.011-0.001-0.017v-5.385c0-0.006,0.001-0.011,0.001-0.017s-0.001-0.011-0.001-0.017v-5.028   c0-0.005,0.001-0.011,0.001-0.017s-0.001-0.011-0.001-0.017v-3.887c0-0.005,0.001-0.011,0.001-0.016s-0.001-0.011-0.001-0.017v-7.1   c0.506-0.168,1.034-0.326,1.577-0.472c-0.54,2.729,1.007,5.317,4.502,7.512c2.737,1.719,5.752,2.613,5.782,2.622   c0.027,0.008,0.054,0.011,0.08,0.011c0.123,0,0.236-0.08,0.272-0.204c0.044-0.151-0.042-0.308-0.193-0.353   c-0.116-0.034-11.61-3.485-9.785-9.905c0.365-1.291,1.248-2.643,2.624-4.016c5.281-5.281,10.01-4.3,13.054-2.538   c0.014,0.01,0.029,0.019,0.046,0.027c2.313,1.351,3.732,3.189,3.745,3.208c0.096,0.125,0.274,0.148,0.399,0.053   c0.125-0.095,0.149-0.273,0.054-0.398c-0.059-0.074-1.36-1.76-3.559-3.138c11.819-8.268,20.786-0.515,25.252,5.177   c-3.066,0.789-5.568,3.371-6.92,5.601c-0.033,0.056-0.065,0.11-0.097,0.165c-7.317-1.758-8.008-5.709-8.016-5.762   c-0.023-0.155-0.167-0.261-0.321-0.241c-0.155,0.022-0.264,0.166-0.242,0.321c0.025,0.178,0.701,4.32,8.295,6.196   c-0.593,1.144-0.841,2.135-0.666,2.728c0.045,0.151,0.202,0.237,0.353,0.192c0.151-0.044,0.237-0.202,0.193-0.353   c-0.131-0.443,0.123-1.527,0.987-2.951c1.354-2.233,3.899-4.834,6.985-5.44c2.39-0.466,4.676,0.354,6.801,2.429l-5.805,5.808   c-0.11,0.111-0.11,0.291,0,0.402c0.055,0.056,0.128,0.083,0.2,0.083s0.146-0.027,0.202-0.083l5.803-5.805   c0.521,0.55,1.033,1.184,1.528,1.888l-10.026,10.028c-0.11,0.111-0.11,0.291,0,0.402c0.056,0.055,0.128,0.083,0.202,0.083   c0.072,0,0.145-0.028,0.2-0.083l9.95-9.952c0.438,0.656,0.866,1.373,1.279,2.139l-1.445,1.443   c-0.111,0.111-0.111,0.291-0.001,0.402c0.056,0.055,0.13,0.083,0.202,0.083s0.146-0.028,0.2-0.083l1.321-1.319   c0.124,0.241,0.247,0.485,0.367,0.731c0.26,0.534,0.499,1.073,0.713,1.604l-14.488,14.489l-0.205,0.001   c-0.002,0-0.004,0.001-0.008,0.001c-0.002,0-0.004,0-0.006,0.001c-0.15,0.007-0.266,0.13-0.266,0.281   c0,0.001,0.001,0.003,0.001,0.004c-0.016,0.107-0.034,0.214-0.055,0.317C281.594,267.385,279.876,269.346,276.963,270.77z    M297.073,259.273c-2.734,4.057-9.442,4.913-13.644,5.03l13.893-13.893C298.665,254.049,298.584,257.03,297.073,259.273z"></path><path d="M281.743,256.746l-8.286,8.287c-0.112,0.111-0.112,0.291,0,0.402c0.055,0.055,0.128,0.082,0.2,0.082   c0.073,0,0.146-0.027,0.202-0.082l8.286-8.287c0.11-0.11,0.11-0.29,0-0.402C282.034,256.635,281.854,256.635,281.743,256.746z"></path><path d="M286.386,257.01c0.073,0,0.146-0.028,0.201-0.084l6.147-6.147c0.111-0.11,0.111-0.291,0-0.401   c-0.111-0.111-0.291-0.111-0.401,0l-6.148,6.148c-0.11,0.11-0.11,0.29,0,0.4C286.241,256.981,286.314,257.01,286.386,257.01z"></path><path d="M297.174,254.378c-0.111-0.111-0.291-0.111-0.402,0l-8.04,8.041c-0.111,0.11-0.111,0.29,0,0.402   c0.055,0.055,0.129,0.082,0.201,0.082s0.146-0.027,0.2-0.082l8.041-8.042C297.284,254.668,297.284,254.489,297.174,254.378z"></path></g></svg>