<svg height='100px' width='100px'  fill="#ffffff" xmlns="http://www.w3.org/2000/svg" xmlns:xlink="http://www.w3.org/1999/xlink" version="1.1" x="0px" y="0px" viewBox="206 206 100 100" enable-background="new 206 206 100 100" xml:space="preserve"><g><g><g><g><path d="M256,257.288c-11.025,0-19.995-8.97-19.995-19.995s8.97-19.995,19.995-19.995c11.025,0,19.995,8.97,19.995,19.995      C275.994,248.318,267.025,257.288,256,257.288z M256,217.849c-10.721,0-19.443,8.722-19.443,19.443      c0,10.722,8.723,19.443,19.443,19.443c10.72,0,19.443-8.722,19.443-19.443C275.443,226.572,266.72,217.849,256,217.849z"></path></g><g><path d="M256,261.527c-13.363,0-24.234-10.872-24.234-24.234s10.871-24.234,24.234-24.234c13.362,0,24.233,10.871,24.233,24.234      C280.233,250.655,269.362,261.527,256,261.527z M256,213.611c-13.059,0-23.682,10.624-23.682,23.682      c0,13.058,10.624,23.683,23.682,23.683c13.058,0,23.681-10.625,23.681-23.683C279.681,224.234,269.058,213.611,256,213.611z"></path></g><g><path d="M253.185,267.115L253.185,267.115c-0.152,0-0.276-0.123-0.276-0.275v-5.756c0-0.151,0.124-0.276,0.276-0.276l0,0      c0.153,0,0.276,0.125,0.276,0.276v5.756C253.461,266.992,253.337,267.115,253.185,267.115z"></path></g><g><path d="M258.814,267.115c-0.151,0-0.275-0.123-0.275-0.275v-5.756c0-0.151,0.124-0.276,0.275-0.276      c0.153,0,0.276,0.125,0.276,0.276v5.756C259.09,266.992,258.967,267.115,258.814,267.115z"></path></g><g><path d="M258.111,298.943L258.111,298.943l-4.222-0.002c-1.009,0.002-1.961-0.395-2.679-1.114      c-0.718-0.718-1.114-1.67-1.114-2.68v-24.862c0-2.093,1.702-3.794,3.793-3.794h4.222c2.092,0,3.794,1.701,3.794,3.794v24.862      C261.905,297.24,260.203,298.943,258.111,298.943z M253.888,267.043c-1.788,0-3.242,1.453-3.242,3.242v24.862      c0,0.862,0.338,1.676,0.952,2.29c0.615,0.615,1.428,0.954,2.29,0.954h4.222c1.789,0,3.242-1.455,3.242-3.244v-24.862      c0-1.789-1.455-3.242-3.242-3.242H253.888L253.888,267.043z"></path></g></g><g><g><path d="M238.141,245.939c-0.071,0-0.142-0.026-0.196-0.081c-0.107-0.108-0.107-0.283,0-0.39l21.658-21.657      c0.108-0.108,0.282-0.108,0.391,0c0.107,0.107,0.107,0.283,0,0.39l-21.658,21.657      C238.282,245.913,238.211,245.939,238.141,245.939z"></path></g><g><path d="M263.271,220.809c-0.071,0-0.141-0.026-0.194-0.081c-0.108-0.107-0.108-0.283,0-0.39l1.099-1.101      c0.108-0.107,0.282-0.107,0.391,0c0.108,0.108,0.108,0.283,0,0.39l-1.1,1.101C263.411,220.783,263.342,220.809,263.271,220.809z      "></path></g><g><path d="M240.349,249.568c-0.07,0-0.142-0.026-0.195-0.081c-0.108-0.107-0.108-0.282,0-0.39l1.528-1.529      c0.108-0.107,0.283-0.107,0.39,0c0.108,0.108,0.108,0.283,0,0.39l-1.528,1.529C240.49,249.541,240.42,249.568,240.349,249.568z"></path></g><g><path d="M245.366,244.551c-0.07,0-0.141-0.026-0.195-0.08c-0.107-0.108-0.107-0.282,0-0.39l11.459-11.46      c0.108-0.108,0.282-0.108,0.391,0c0.106,0.108,0.106,0.282,0,0.39l-11.46,11.459      C245.507,244.525,245.436,244.551,245.366,244.551z"></path></g><g><path d="M260.101,229.815c-0.069,0-0.141-0.027-0.193-0.081c-0.108-0.107-0.108-0.283,0-0.39l7.895-7.895      c0.107-0.108,0.283-0.108,0.39,0c0.108,0.107,0.108,0.282,0,0.39l-7.895,7.896C260.243,229.788,260.172,229.815,260.101,229.815      z"></path></g><g><path d="M243.191,252.561c-0.071,0-0.142-0.026-0.195-0.081c-0.108-0.108-0.108-0.283,0-0.39l17.186-17.186      c0.107-0.108,0.281-0.108,0.39,0c0.108,0.107,0.108,0.283,0,0.39l-17.187,17.186      C243.332,252.534,243.261,252.561,243.191,252.561z"></path></g><g><path d="M262.968,232.783c-0.069,0-0.141-0.027-0.194-0.081c-0.108-0.107-0.108-0.282,0-0.39l8.023-8.024      c0.108-0.108,0.282-0.108,0.391,0c0.108,0.107,0.108,0.282,0,0.39l-8.023,8.024      C263.111,232.757,263.039,232.783,262.968,232.783z"></path></g><g><path d="M246.654,254.935c-0.071,0-0.142-0.027-0.196-0.08c-0.107-0.108-0.107-0.283,0-0.39l7.374-7.374      c0.108-0.108,0.282-0.108,0.39,0c0.108,0.107,0.108,0.282,0,0.39l-7.374,7.374C246.795,254.908,246.724,254.935,246.654,254.935      z"></path></g><g><path d="M256.932,244.658c-0.071,0-0.143-0.027-0.195-0.081c-0.108-0.107-0.108-0.282,0-0.39l16.436-16.436      c0.108-0.107,0.281-0.107,0.39,0s0.108,0.283,0,0.39l-16.436,16.436C257.073,244.631,257.001,244.658,256.932,244.658z"></path></g><g><path d="M250.825,256.598c-0.071,0-0.141-0.026-0.195-0.081c-0.107-0.107-0.107-0.282,0-0.389l12.952-12.952      c0.108-0.108,0.281-0.108,0.39,0c0.108,0.107,0.108,0.282,0,0.39l-12.952,12.951      C250.967,256.572,250.896,256.598,250.825,256.598z"></path></g><g><path d="M266.49,240.936c-0.07,0-0.142-0.027-0.194-0.081c-0.108-0.107-0.108-0.282,0-0.39l8.539-8.542      c0.108-0.107,0.283-0.107,0.391,0c0.108,0.108,0.108,0.283,0,0.39l-8.54,8.542C266.631,240.909,266.56,240.936,266.49,240.936z"></path></g></g></g><g><g><g><path d="M270.677,280.436h-9.048c-0.151,0-0.276-0.123-0.276-0.275c0-0.153,0.125-0.276,0.276-0.276h9.047      c0.152,0,0.275,0.123,0.275,0.276C270.951,280.313,270.83,280.436,270.677,280.436z"></path></g><g><path d="M274.686,273.871h-13.057c-0.153,0-0.276-0.125-0.276-0.276c0-0.152,0.123-0.275,0.276-0.275h12.781v-6.679      c0-0.151,0.125-0.275,0.275-0.275c0.153,0,0.276,0.123,0.276,0.274v6.954C274.962,273.746,274.839,273.871,274.686,273.871z"></path></g><g><path d="M270.677,292.962c-0.152,0-0.275-0.125-0.275-0.276v-5.831h-8.772c-0.151,0-0.276-0.123-0.276-0.276      c0-0.151,0.125-0.275,0.276-0.275h9.048c0.153,0,0.276,0.124,0.276,0.275v6.107C270.953,292.837,270.83,292.962,270.677,292.962      z"></path></g><g><path d="M270.676,296.394c-1.098,0-1.992-0.893-1.992-1.99c0-1.099,0.895-1.993,1.992-1.993c1.099,0,1.991,0.895,1.991,1.993      C272.667,295.502,271.775,296.394,270.676,296.394z M270.676,292.963c-0.794,0-1.44,0.646-1.44,1.44      c0,0.795,0.646,1.439,1.44,1.439c0.793,0,1.439-0.645,1.439-1.439C272.115,293.609,271.469,292.963,270.676,292.963z"></path></g><g><path d="M272.392,282.151c-1.098,0-1.992-0.894-1.992-1.992s0.895-1.991,1.992-1.991c1.099,0,1.993,0.893,1.993,1.991      S273.49,282.151,272.392,282.151z M272.392,278.719c-0.794,0-1.44,0.647-1.44,1.44c0,0.795,0.646,1.44,1.44,1.44      c0.795,0,1.441-0.646,1.441-1.44C273.833,279.366,273.187,278.719,272.392,278.719z"></path></g><g><path d="M274.686,266.709c-1.099,0-1.991-0.893-1.991-1.992c0-1.097,0.893-1.991,1.991-1.991c1.098,0,1.992,0.895,1.992,1.991      C276.678,265.816,275.783,266.709,274.686,266.709z M274.686,263.277c-0.795,0-1.439,0.646-1.439,1.439      c0,0.795,0.645,1.44,1.439,1.44c0.794,0,1.44-0.646,1.44-1.44C276.126,263.924,275.48,263.277,274.686,263.277z"></path></g><g><path d="M274.686,266.709c-1.099,0-1.991-0.893-1.991-1.992c0-1.097,0.893-1.991,1.991-1.991c1.098,0,1.992,0.895,1.992,1.991      C276.678,265.816,275.783,266.709,274.686,266.709z M274.686,263.277c-0.795,0-1.439,0.646-1.439,1.439      c0,0.795,0.645,1.44,1.439,1.44c0.794,0,1.44-0.646,1.44-1.44C276.126,263.924,275.48,263.277,274.686,263.277z"></path></g><g><path d="M279.8,276.562h-18.171c-0.153,0-0.276-0.123-0.276-0.275c0-0.153,0.123-0.276,0.276-0.276h18.057l3.652-3.651      c0.108-0.108,0.282-0.108,0.391,0c0.106,0.108,0.106,0.283,0,0.391l-3.734,3.732C279.943,276.533,279.872,276.562,279.8,276.562      z"></path></g><g><path d="M284.7,273.29c-1.1,0-1.992-0.894-1.992-1.991c0-1.099,0.893-1.991,1.992-1.991c1.099,0,1.991,0.893,1.991,1.991      C286.692,272.396,285.799,273.29,284.7,273.29z M284.7,269.859c-0.794,0-1.44,0.645-1.44,1.439c0,0.794,0.646,1.44,1.44,1.44      c0.793,0,1.439-0.646,1.439-1.44C286.14,270.504,285.493,269.859,284.7,269.859z"></path></g><g><path d="M280.744,291.624c-1.098,0-1.991-0.894-1.991-1.992c0-1.098,0.894-1.99,1.991-1.99c1.1,0,1.992,0.893,1.992,1.99      C282.737,290.73,281.844,291.624,280.744,291.624z M280.744,288.191c-0.793,0-1.439,0.647-1.439,1.44      c0,0.795,0.646,1.44,1.439,1.44c0.795,0,1.44-0.646,1.44-1.44C282.185,288.839,281.539,288.191,280.744,288.191z"></path></g><g><path d="M279.591,288.638c-0.064,0-0.122-0.021-0.168-0.057c-0.011-0.008-0.02-0.017-0.029-0.025l-4.5-4.503h-13.265      c-0.153,0-0.276-0.123-0.276-0.275c0-0.151,0.123-0.276,0.276-0.276h13.379c0.072,0,0.143,0.03,0.194,0.082l4.569,4.57      c0.058,0.051,0.095,0.125,0.095,0.207C279.866,288.513,279.743,288.638,279.591,288.638z"></path></g></g><g><g><path d="M250.371,280.436h-9.047c-0.152,0-0.276-0.123-0.276-0.275c0-0.153,0.122-0.276,0.275-0.276h9.049      c0.152,0,0.276,0.123,0.276,0.276C250.647,280.313,250.523,280.436,250.371,280.436z"></path></g><g><path d="M250.371,273.871h-13.058c-0.153,0-0.276-0.125-0.276-0.276v-6.954c0-0.151,0.123-0.275,0.276-0.275      c0.152,0,0.276,0.123,0.276,0.274v6.68h12.782c0.152,0,0.276,0.123,0.276,0.274      C250.647,273.746,250.523,273.871,250.371,273.871z"></path></g><g><path d="M241.322,292.962c-0.153,0-0.276-0.125-0.276-0.276v-6.107c0-0.151,0.123-0.275,0.276-0.275h9.049      c0.152,0,0.276,0.124,0.276,0.275c0,0.153-0.124,0.276-0.276,0.276h-8.773v5.831      C241.598,292.837,241.474,292.962,241.322,292.962z"></path></g><g><path d="M241.323,296.394c-1.098,0-1.992-0.893-1.992-1.99c0-1.099,0.894-1.993,1.992-1.993c1.099,0,1.991,0.895,1.992,1.993      C243.316,295.502,242.422,296.394,241.323,296.394z M241.323,292.963c-0.794,0-1.44,0.646-1.44,1.44      c0,0.795,0.646,1.439,1.44,1.439c0.794,0,1.44-0.645,1.44-1.439C242.763,293.609,242.118,292.963,241.323,292.963z"></path></g><g><path d="M239.608,282.151c-1.099,0-1.993-0.894-1.993-1.992s0.894-1.991,1.993-1.991c1.098,0,1.992,0.893,1.992,1.991      S240.706,282.151,239.608,282.151z M239.608,278.719c-0.794,0-1.441,0.647-1.441,1.44c0,0.795,0.647,1.44,1.441,1.44      c0.793,0,1.44-0.646,1.44-1.44C241.048,279.366,240.401,278.719,239.608,278.719z"></path></g><g><path d="M237.314,266.709c-1.098,0-1.992-0.893-1.992-1.992c0-1.097,0.894-1.991,1.992-1.991s1.992,0.895,1.992,1.991      C239.306,265.816,238.412,266.709,237.314,266.709z M237.314,263.277c-0.794,0-1.44,0.646-1.44,1.439      c0,0.795,0.646,1.44,1.44,1.44c0.794,0,1.44-0.646,1.44-1.44C238.754,263.924,238.108,263.277,237.314,263.277z"></path></g><g><path d="M237.314,266.709c-1.098,0-1.992-0.893-1.992-1.992c0-1.097,0.894-1.991,1.992-1.991s1.992,0.895,1.992,1.991      C239.306,265.816,238.412,266.709,237.314,266.709z M237.314,263.277c-0.794,0-1.44,0.646-1.44,1.439      c0,0.795,0.646,1.44,1.44,1.44c0.794,0,1.44-0.646,1.44-1.44C238.754,263.924,238.108,263.277,237.314,263.277z"></path></g><g><path d="M250.371,276.562h-18.171c-0.073,0-0.143-0.029-0.195-0.08l-3.733-3.732c-0.108-0.107-0.108-0.282,0-0.391      c0.107-0.108,0.282-0.108,0.39,0l3.653,3.651h18.056c0.152,0,0.276,0.123,0.276,0.276      C250.647,276.439,250.523,276.562,250.371,276.562z"></path></g><g><path d="M227.3,273.291c-1.098,0-1.992-0.895-1.992-1.992c0-1.099,0.894-1.991,1.992-1.991s1.992,0.893,1.992,1.991      C229.291,272.396,228.398,273.291,227.3,273.291z M227.3,269.859c-0.794,0-1.44,0.645-1.44,1.439c0,0.794,0.646,1.44,1.44,1.44      c0.794,0,1.44-0.646,1.44-1.44C228.74,270.504,228.094,269.859,227.3,269.859z"></path></g><g><path d="M231.254,291.624c-1.098,0-1.991-0.894-1.991-1.992c0-1.098,0.894-1.992,1.991-1.992c1.099,0,1.993,0.895,1.993,1.992      C233.247,290.73,232.353,291.624,231.254,291.624z M231.254,288.191c-0.793,0-1.439,0.647-1.439,1.44      c0,0.795,0.646,1.44,1.439,1.44c0.794,0,1.441-0.646,1.441-1.44C232.695,288.839,232.048,288.191,231.254,288.191z"></path></g><g><path d="M232.409,288.638c-0.153,0-0.276-0.123-0.276-0.274c0-0.083,0.036-0.157,0.094-0.21l4.57-4.57      c0.052-0.052,0.122-0.082,0.195-0.082h13.379c0.152,0,0.276,0.125,0.276,0.276c0,0.152-0.124,0.275-0.276,0.275h-13.264      l-4.501,4.503c-0.021,0.022-0.047,0.04-0.075,0.054C232.493,288.628,232.452,288.638,232.409,288.638z"></path></g></g></g></g></svg>