<svg xmlns="http://www.w3.org/2000/svg" viewBox="0 0 105.45 105.45"><defs><style>.cls-1{fill:#002b3e;}.cls-2{fill:#ffd100;}.cls-3{opacity:0.69;}.cls-4{fill:#6b6c6f;}.cls-5{opacity:0.64;}.cls-6{fill:#a7a9ac;}.cls-7{fill:#5f6062;}.cls-8{fill:#a9abae;opacity:0.62;}.cls-9{fill:none;stroke:#fff;stroke-linecap:round;stroke-linejoin:round;stroke-width:0.1px;opacity:0.31;}.cls-10{fill:#231f20;}</style></defs><g id="Layer_2" data-name="Layer 2"><g id="Layer_1-2" data-name="Layer 1"><circle class="cls-1" cx="52.73" cy="52.73" r="52.73"/><path class="cls-2" d="M82.81,33.87v4.46h4.28v1.54H82.81v4.5H81.19v-4.5H76.9V38.33h4.29V33.87Z"/><g class="cls-3"><path class="cls-4" d="M56.54,49.71c0-1.56-.06-2.46-.08-3.17H57.9l.09,1.3h0a2.33,2.33,0,0,1,2.14-1.47c1.77,0,2.94,1.89,2.94,5.23,0,3.76-1.55,5.27-3.15,5.27a1.92,1.92,0,0,1-1.76-1.18h0v5H56.54ZM58.16,53a3.56,3.56,0,0,0,.06.84c.31,1.45,1.05,1.72,1.49,1.72,1.34,0,1.76-1.84,1.76-3.9s-.5-3.86-1.78-3.86c-.74,0-1.39.92-1.49,1.84a5,5,0,0,0,0,.78Z"/><path class="cls-4" d="M71.17,51.62c0,3.93-1.82,5.25-3.38,5.25-1.82,0-3.29-1.66-3.29-5.23s1.66-5.27,3.4-5.27S71.17,48.07,71.17,51.62Zm-5.06,0c0,1.68.3,4,1.77,4s1.66-2.4,1.66-4-.28-3.95-1.7-3.95S66.11,50.06,66.11,51.62Z"/><path class="cls-4" d="M73,42.17H74.6V56.7H73Z"/><path class="cls-4" d="M78.73,43.91a.93.93,0,0,1-1,1.05,1,1,0,0,1-.93-1.05,1,1,0,0,1,1-1A.94.94,0,0,1,78.73,43.91ZM77,56.7V46.54h1.62V56.7Z"/><path class="cls-4" d="M82.83,43.85v2.69h2v1.24h-2v6c0,1.33.48,1.68,1.07,1.68a3.13,3.13,0,0,0,.65-.06l.06,1.24a3.62,3.62,0,0,1-1.19.17,2.07,2.07,0,0,1-1.6-.61,3.75,3.75,0,0,1-.61-2.57V47.78H80V46.54h1.24V44.31Z"/><path class="cls-4" d="M88,43.91A.94.94,0,0,1,87,45,1,1,0,0,1,86,43.91a1,1,0,0,1,.95-1A1,1,0,0,1,88,43.91ZM86.21,56.7V46.54h1.62V56.7Z"/><path class="cls-4" d="M95,56.45a3.5,3.5,0,0,1-1.68.38c-2.23,0-3.72-1.79-3.72-5.15,0-2.92,1.47-5.29,4-5.29a3.22,3.22,0,0,1,1.43.32L94.76,48a2.66,2.66,0,0,0-1.16-.27c-1.62,0-2.35,1.93-2.35,3.92,0,2.37.9,3.8,2.39,3.8a2.76,2.76,0,0,0,1.18-.27Z"/><path class="cls-4" d="M96.14,55a3.25,3.25,0,0,0,1.64.53,1.38,1.38,0,0,0,1.49-1.48c0-.77-.27-1.3-1.3-2-1.32-.86-2-1.72-2-2.9a2.73,2.73,0,0,1,2.79-2.81,3.52,3.52,0,0,1,1.83.52l-.44,1.22a2.41,2.41,0,0,0-1.34-.44A1.25,1.25,0,0,0,97.44,49c0,.69.26,1.07,1.26,1.77a3.69,3.69,0,0,1,2.1,3.08,2.83,2.83,0,0,1-3,3,3.53,3.53,0,0,1-2-.59Z"/></g><g class="cls-5"><path class="cls-6" d="M42,36.73c0-1.55-.07-2.46-.09-3.17h1.45l.09,1.3h0a2.32,2.32,0,0,1,2.14-1.47c1.76,0,2.94,1.89,2.94,5.23,0,3.76-1.55,5.27-3.15,5.27a1.92,1.92,0,0,1-1.76-1.18h0v5H42ZM43.56,40a3.06,3.06,0,0,0,.07.84c.31,1.45,1,1.73,1.49,1.73,1.34,0,1.76-1.85,1.76-3.91s-.5-3.86-1.78-3.86c-.74,0-1.39.92-1.49,1.84a4,4,0,0,0,0,.78Z"/><path class="cls-6" d="M50.33,36.18c0-.86-.07-1.87-.09-2.62h1.45l.08,1.59h0A2.46,2.46,0,0,1,54,33.39l.33,0v1.66a1.72,1.72,0,0,0-.33,0,2.18,2.18,0,0,0-2,2.12,5.21,5.21,0,0,0-.07.92v5.63H50.33Z"/><path class="cls-6" d="M59.44,43.72l-.11-1.07h-.06a2.27,2.27,0,0,1-2,1.24c-1.37,0-2.42-1.16-2.42-2.9,0-2.54,2-3.67,4.33-3.69V37c0-1.36-.34-2.31-1.62-2.31a3,3,0,0,0-1.68.53l-.36-1.14a4.43,4.43,0,0,1,2.37-.67c2,0,2.92,1.34,2.92,3.63v4.39a15.36,15.36,0,0,0,.11,2.31Zm-.23-5.25c-.84,0-2.79.15-2.79,2.35,0,1.33.67,1.81,1.23,1.81.72,0,1.33-.53,1.52-1.53a2.83,2.83,0,0,0,0-.57Z"/><path class="cls-6" d="M64,33.56l1,2.18c.25.59.44,1.18.67,1.79h0c.24-.65.47-1.24.68-1.79l.92-2.18h1.66l-2.42,5,2.4,5.14H67.1l-1-2.29c-.23-.54-.42-1.07-.67-1.74h0c-.21.61-.44,1.15-.67,1.74l-.94,2.29H62.17l2.41-5.1-2.35-5.06Z"/><path class="cls-6" d="M72,30.93A.94.94,0,0,1,71,32,1,1,0,0,1,70,30.93a1,1,0,0,1,.95-1A.94.94,0,0,1,72,30.93ZM70.21,43.72V33.56h1.62V43.72Z"/><path class="cls-6" d="M73.8,42a3.25,3.25,0,0,0,1.64.53,1.38,1.38,0,0,0,1.49-1.47c0-.78-.27-1.3-1.3-2-1.32-.86-2-1.72-2-2.9a2.73,2.73,0,0,1,2.79-2.81,3.43,3.43,0,0,1,1.83.53l-.44,1.21a2.41,2.41,0,0,0-1.34-.44A1.25,1.25,0,0,0,75.1,36c0,.7.26,1.07,1.26,1.77a3.7,3.7,0,0,1,2.1,3.08,2.83,2.83,0,0,1-3,3,3.46,3.46,0,0,1-2-.59Z"/></g><path class="cls-7" d="M15.81,74.8V70.92a9.88,9.88,0,0,1,.4-3,4.68,4.68,0,0,1,1.35-2,8.41,8.41,0,0,1,3.79-1.88,28.23,28.23,0,0,1,6.48-.56,26,26,0,0,1,6.31.62,6.9,6.9,0,0,1,3.56,2q1.53,1.71,1.53,6.14V74.8Zm20.66-3.15c0-1.92-.58-3.21-1.74-3.86s-3.42-1-6.78-1q-5.41,0-7.45,1a3.52,3.52,0,0,0-2,3.5v.4Z"/><path class="cls-7" d="M15.81,57.19V54.73l23.42-5v3.13l-4.56.88v4.64l4.56.89v3Zm16.42-3-3.74.7q-3.79.71-8.13,1.14c1.41.14,2.83.32,4.27.54s3,.49,4.59.79l3,.58Z"/><path class="cls-7" d="M15.81,50.23V40h2.76V43.5H39.23v3.09H18.57v3.64Z"/><path class="cls-7" d="M15.81,35.32V32.86l23.42-5V31l-4.56.88v4.64l4.56.89v3Zm16.42-3-3.74.7q-3.79.69-8.13,1.14c1.41.14,2.83.32,4.27.54s3,.49,4.59.79l3,.58Z"/><circle class="cls-8" cx="15.8" cy="74.82" r="0.48"/><circle class="cls-8" cx="18.54" cy="71.66" r="0.48"/><circle class="cls-8" cx="36.41" cy="71.58" r="0.48"/><circle class="cls-8" cx="32.22" cy="57.93" r="0.48"/><circle class="cls-8" cx="18.54" cy="46.59" r="0.48"/><circle class="cls-8" cx="18.54" cy="43.51" r="0.48"/><circle class="cls-8" cx="18.54" cy="39.96" r="0.48"/><circle class="cls-8" cx="20.51" cy="34.15" r="0.48"/><circle class="cls-8" cx="20.51" cy="56.04" r="0.48"/><circle class="cls-8" cx="39.17" cy="74.84" r="0.48"/><circle class="cls-8" cx="39.17" cy="62.34" r="0.48"/><circle class="cls-8" cx="39.17" cy="59.24" r="0.48"/><circle class="cls-8" cx="39.17" cy="52.86" r="0.48"/><circle class="cls-8" cx="39.17" cy="49.7" r="0.48"/><circle class="cls-8" cx="39.17" cy="46.61" r="0.48"/><circle class="cls-8" cx="36.41" cy="46.55" r="0.48"/><circle class="cls-8" cx="39.17" cy="43.51" r="0.48"/><circle class="cls-8" cx="32.19" cy="54.2" r="0.48"/><circle class="cls-8" cx="15.8" cy="57.16" r="0.48"/><circle class="cls-8" cx="15.8" cy="54.83" r="0.48"/><circle class="cls-8" cx="15.8" cy="50.18" r="0.48"/><circle class="cls-8" cx="15.8" cy="40.04" r="0.48"/><circle class="cls-8" cx="15.8" cy="35.29" r="0.48"/><circle class="cls-8" cx="15.8" cy="32.82" r="0.48"/><circle class="cls-8" cx="32.08" cy="36.07" r="0.48"/><circle class="cls-8" cx="32.08" cy="32.42" r="0.48"/><circle class="cls-8" cx="34.68" cy="31.86" r="0.48"/><circle class="cls-8" cx="34.68" cy="36.49" r="0.48"/><circle class="cls-8" cx="34.68" cy="53.78" r="0.48"/><circle class="cls-8" cx="34.68" cy="58.41" r="0.48"/><circle class="cls-8" cx="39.17" cy="27.82" r="0.48"/><circle class="cls-8" cx="39.17" cy="30.97" r="0.48"/><circle class="cls-8" cx="39.17" cy="37.39" r="0.48"/><circle class="cls-8" cx="39.17" cy="40.41" r="0.48"/><line class="cls-9" x1="39.17" y1="74.86" x2="39.17" y2="27.84"/><line class="cls-9" x1="32.24" y1="58" x2="32.24" y2="32.35"/><line class="cls-9" x1="18.54" y1="71.62" x2="18.54" y2="39.97"/><line class="cls-9" x1="15.8" y1="74.81" x2="15.8" y2="32.92"/><line class="cls-9" x1="20.5" y1="55.99" x2="20.51" y2="34.09"/><line class="cls-9" x1="36.41" y1="71.56" x2="36.41" y2="46.55"/><line class="cls-9" x1="34.68" y1="58.31" x2="34.68" y2="31.84"/><path class="cls-2" d="M46.65,65.49V58.54l.48.11,4.81,4.85v.41l-1.83,0s-.25.4-.07.31v.14a9.46,9.46,0,0,1,.9,2l-1.19.35-1.21-2.44-1,1c-.11,0-.26.38-.37.38S46.83,65.48,46.65,65.49Z"/><path class="cls-10" d="M51.6,63.13v-.47h-.47v.47h.46v.47h-1.9v1h.47V65h0v.46h.46V65h0v-.46h-.46c0-.17,0-.33,0-.49H52v-.94Z"/><path class="cls-10" d="M48.8,59.86h-.46v.48h.46Z"/><path class="cls-10" d="M49.27,60.33h-.46v.47h.46Z"/><path class="cls-10" d="M49.73,60.79h-.46v.48h.46Z"/><path class="cls-10" d="M50.2,61.26h-.46v.47h.46Z"/><path class="cls-10" d="M50.66,61.73H50.2v.47h.46Z"/><path class="cls-10" d="M51.13,62.19h-.46v.47h.46Z"/><path class="cls-10" d="M49.64,66.91h1v-.47h-1Z"/><path class="cls-10" d="M49.17,66h0v.47h.46V66h0V65.5h-.46Z"/><path class="cls-10" d="M50.62,66h0v.47h.46V66h0V65.5h-.46Z"/><path class="cls-10" d="M47.87,58.93h-.46v.47h.46Z"/><path class="cls-10" d="M48.34,59.4h-.47v.47h.47Z"/><path class="cls-10" d="M48.7,64.56v-.47h-.46v.46h-.46V65h-.46v.46H47V58.93h.46v-.46h-.48V58h-.46v8h.85v-.47h.46V65h.46v-.46h.46v.93h.47v-.93Z"/></g></g></svg>