<svg xmlns="http://www.w3.org/2000/svg" viewBox="0 0 105.45 105.45"><defs><style>.cls-1{fill:#002b3e;}.cls-2{font-family:MyriadPro-Semibold, Myriad Pro;font-weight:600;}.cls-10,.cls-2{fill:#ffd100;}.cls-3{opacity:0.69;fill:#6b6c6f;}.cls-3,.cls-4{font-size:21px;font-family:MyriadPro-Cond, Myriad Pro;}.cls-4{opacity:0.64;fill:#a7a9ac;}.cls-5{letter-spacing:-0.01em;}.cls-6{opacity:0.77;}.cls-7{fill:#5f6062;}.cls-8{fill:#a9abae;opacity:0.62;}.cls-9{fill:none;stroke:#fff;stroke-linecap:round;stroke-linejoin:round;stroke-width:0.1px;opacity:0.31;}.cls-11{fill:#231f20;}</style></defs><g id="Layer_2" data-name="Layer 2"><g id="Layer_1-2" data-name="Layer 1"><circle class="cls-1" cx="52.73" cy="52.73" r="52.73"/><text class="cls-2" transform="translate(76.11 44.37)">+</text><text class="cls-3" transform="translate(55.43 56.7)">politics</text><text class="cls-4" transform="translate(40.84 43.72)">p<tspan class="cls-5" x="8.38" y="0">r</tspan><tspan x="13.46" y="0">axis</tspan></text><g class="cls-6"><path class="cls-7" d="M15.81,74.8V70.92a9.88,9.88,0,0,1,.4-3,4.68,4.68,0,0,1,1.35-2,8.41,8.41,0,0,1,3.79-1.88,28.23,28.23,0,0,1,6.48-.56,26,26,0,0,1,6.31.62,6.9,6.9,0,0,1,3.56,2q1.53,1.71,1.53,6.14V74.8Zm20.66-3.15c0-1.92-.58-3.21-1.74-3.86s-3.42-1-6.78-1q-5.41,0-7.45,1a3.52,3.52,0,0,0-2,3.5v.4Z"/><path class="cls-7" d="M15.81,57.19V54.73l23.42-5v3.13l-4.56.88v4.64l4.56.89v3Zm16.42-3-3.74.7q-3.79.71-8.13,1.14c1.41.14,2.83.32,4.27.54s3,.49,4.59.79l3,.58Z"/><path class="cls-7" d="M15.81,50.23V40h2.76V43.5H39.23v3.09H18.57v3.64Z"/><path class="cls-7" d="M15.81,35.32V32.86l23.42-5V31l-4.56.88v4.64l4.56.89v3Zm16.42-3-3.74.7q-3.79.69-8.13,1.14c1.41.14,2.83.32,4.27.54s3,.49,4.59.79l3,.58Z"/></g><circle class="cls-8" cx="15.8" cy="74.82" r="0.48"/><circle class="cls-8" cx="18.54" cy="71.66" r="0.48"/><circle class="cls-8" cx="36.41" cy="71.58" r="0.48"/><circle class="cls-8" cx="32.22" cy="57.93" r="0.48"/><circle class="cls-8" cx="18.54" cy="46.59" r="0.48"/><circle class="cls-8" cx="18.54" cy="43.51" r="0.48"/><circle class="cls-8" cx="18.54" cy="39.96" r="0.48"/><circle class="cls-8" cx="20.51" cy="34.15" r="0.48"/><circle class="cls-8" cx="20.51" cy="56.04" r="0.48"/><circle class="cls-8" cx="39.17" cy="74.84" r="0.48"/><circle class="cls-8" cx="39.17" cy="62.34" r="0.48"/><circle class="cls-8" cx="39.17" cy="59.24" r="0.48"/><circle class="cls-8" cx="39.17" cy="52.86" r="0.48"/><circle class="cls-8" cx="39.17" cy="49.7" r="0.48"/><circle class="cls-8" cx="39.17" cy="46.61" r="0.48"/><circle class="cls-8" cx="36.41" cy="46.55" r="0.48"/><circle class="cls-8" cx="39.17" cy="43.51" r="0.48"/><circle class="cls-8" cx="32.19" cy="54.2" r="0.48"/><circle class="cls-8" cx="15.8" cy="57.16" r="0.48"/><circle class="cls-8" cx="15.8" cy="54.83" r="0.48"/><circle class="cls-8" cx="15.8" cy="50.18" r="0.48"/><circle class="cls-8" cx="15.8" cy="40.04" r="0.48"/><circle class="cls-8" cx="15.8" cy="35.29" r="0.48"/><circle class="cls-8" cx="15.8" cy="32.82" r="0.48"/><circle class="cls-8" cx="32.08" cy="36.07" r="0.48"/><circle class="cls-8" cx="32.08" cy="32.42" r="0.48"/><circle class="cls-8" cx="34.68" cy="31.86" r="0.48"/><circle class="cls-8" cx="34.68" cy="36.49" r="0.48"/><circle class="cls-8" cx="34.68" cy="53.78" r="0.48"/><circle class="cls-8" cx="34.68" cy="58.41" r="0.48"/><circle class="cls-8" cx="39.17" cy="27.82" r="0.48"/><circle class="cls-8" cx="39.17" cy="30.97" r="0.48"/><circle class="cls-8" cx="39.17" cy="37.39" r="0.48"/><circle class="cls-8" cx="39.17" cy="40.41" r="0.48"/><line class="cls-9" x1="39.17" y1="74.86" x2="39.17" y2="27.84"/><line class="cls-9" x1="32.24" y1="58" x2="32.24" y2="32.35"/><line class="cls-9" x1="18.54" y1="71.62" x2="18.54" y2="39.97"/><line class="cls-9" x1="15.8" y1="74.81" x2="15.8" y2="32.92"/><line class="cls-9" x1="20.5" y1="55.99" x2="20.51" y2="34.09"/><line class="cls-9" x1="36.41" y1="71.56" x2="36.41" y2="46.55"/><line class="cls-9" x1="34.68" y1="58.31" x2="34.68" y2="31.84"/><path class="cls-10" d="M46.65,65.49V58.54l.48.11,4.81,4.85v.41l-1.83,0s-.25.4-.07.31v.14a9.46,9.46,0,0,1,.9,2l-1.19.35-1.21-2.44-1,1c-.11,0-.26.38-.37.38S46.83,65.48,46.65,65.49Z"/><path class="cls-11" d="M51.6,63.13v-.47h-.47v.47h.46v.47h-1.9v1h.47V65h0v.46h.46V65h0v-.46h-.46c0-.17,0-.33,0-.49H52v-.94Z"/><path class="cls-11" d="M48.8,59.86h-.46v.48h.46Z"/><path class="cls-11" d="M49.27,60.33h-.46v.47h.46Z"/><path class="cls-11" d="M49.73,60.79h-.46v.48h.46Z"/><path class="cls-11" d="M50.2,61.26h-.46v.47h.46Z"/><path class="cls-11" d="M50.66,61.73H50.2v.47h.46Z"/><path class="cls-11" d="M51.13,62.19h-.46v.47h.46Z"/><path class="cls-11" d="M49.64,66.91h1v-.47h-1Z"/><path class="cls-11" d="M49.17,66h0v.47h.46V66h0V65.5h-.46Z"/><path class="cls-11" d="M50.62,66h0v.47h.46V66h0V65.5h-.46Z"/><path class="cls-11" d="M47.87,58.93h-.46v.47h.46Z"/><path class="cls-11" d="M48.34,59.4h-.47v.47h.47Z"/><path class="cls-11" d="M48.7,64.56v-.47h-.46v.46h-.46V65h-.46v.46H47V58.93h.46v-.46h-.48V58h-.46v8h.85v-.47h.46V65h.46v-.46h.46v.93h.47v-.93Z"/></g></g></svg>