<svg height='100px' width='100px'  fill="#ffffff" xmlns="http://www.w3.org/2000/svg" xmlns:xlink="http://www.w3.org/1999/xlink" version="1.1" x="0px" y="0px" viewBox="206 206 100 100" enable-background="new 206 206 100 100" xml:space="preserve"><g><path d="M226.495,282.033h16.054c0.154,0,0.279-0.126,0.279-0.28v-3.479v-3.479v-3.478l0,0v-3.479v-3.479v-3.479l0,0v-3.478   c0-0.154-0.125-0.28-0.279-0.28h-7.747v-6.917c1.333-0.141,2.375-1.271,2.375-2.641c0-1.464-1.191-2.655-2.656-2.655   c-1.464,0-2.655,1.191-2.655,2.655c0,1.37,1.042,2.5,2.375,2.641v6.917h-7.747c-0.155,0-0.28,0.126-0.28,0.28v3.479l0,0v3.478   v3.479v3.479l0,0v3.479v3.479v3.479C226.215,281.907,226.34,282.033,226.495,282.033z M232.427,247.566   c0-1.155,0.939-2.095,2.096-2.095c1.155,0,2.095,0.94,2.095,2.095c0,1.156-0.939,2.096-2.095,2.096   C233.366,249.661,232.427,248.722,232.427,247.566z M226.775,257.684h15.494v2.918h-15.494V257.684z M226.775,261.163h15.494v2.917   h-15.494V261.163z M226.775,264.64h15.494v2.919h-15.494V264.64z M226.775,268.119h15.494v2.919h-15.494V268.119z M226.775,271.597   h15.494v2.919h-15.494V271.597z M226.775,275.075h15.494v2.919h-15.494V275.075z M226.775,278.553h15.494v2.919h-15.494V278.553z"></path><path d="M247.765,282.033h16.053c0.155,0,0.28-0.126,0.28-0.28v-3.479v-3.479v-3.478c0-0.155-0.125-0.28-0.28-0.28h-7.746v-6.919   c1.333-0.141,2.375-1.271,2.375-2.64c0-1.465-1.191-2.656-2.656-2.656c-1.463,0-2.655,1.191-2.655,2.656   c0,1.369,1.042,2.5,2.375,2.64v6.919h-7.748c-0.155,0-0.28,0.125-0.28,0.28v3.478v3.479v3.479   C247.485,281.907,247.611,282.033,247.765,282.033z M253.698,261.479c0-1.155,0.939-2.096,2.095-2.096   c1.156,0,2.097,0.94,2.097,2.096s-0.94,2.096-2.097,2.096C254.637,263.575,253.698,262.635,253.698,261.479z M248.046,271.597   h15.494v2.919h-15.494V271.597z M248.046,275.075h15.494v2.919h-15.494V275.075z M248.046,278.553h15.494v2.919h-15.494V278.553z"></path><path d="M269.037,282.033h16.053c0.154,0,0.28-0.126,0.28-0.28v-3.479v-3.479v-3.478l0,0v-3.479v-3.479v-3.479l0,0v-3.478v-3.479   v-3.478v-3.479v-3.479v-3.478c0-0.155-0.126-0.28-0.28-0.28h-7.747v-6.917c1.334-0.141,2.376-1.271,2.376-2.64   c0-1.464-1.191-2.656-2.655-2.656c-1.465,0-2.655,1.191-2.655,2.656c0,1.37,1.042,2.5,2.375,2.64v6.917h-7.748   c-0.154,0-0.279,0.125-0.279,0.28v3.479v3.479v3.479v3.478v3.479v3.479l0,0v3.478v3.479v3.479l0,0v3.479v3.479v3.479   C268.757,281.907,268.881,282.033,269.037,282.033z M274.968,230.175c0-1.155,0.939-2.096,2.096-2.096   c1.155,0,2.096,0.94,2.096,2.096s-0.94,2.095-2.096,2.095C275.907,232.27,274.968,231.33,274.968,230.175z M269.316,240.292h15.494   v2.919h-15.494V240.292z M269.316,243.771h15.494v2.918h-15.494V243.771z M269.316,247.249h15.494v2.918h-15.494V247.249z    M269.316,250.727h15.494v2.918h-15.494V250.727z M269.316,254.205h15.494v2.918h-15.494V254.205z M269.316,257.684h15.494v2.918   h-15.494V257.684z M269.316,261.163h15.494v2.917h-15.494V261.163z M269.316,264.64h15.494v2.919h-15.494V264.64z M269.316,268.119   h15.494v2.919h-15.494V268.119z M269.316,271.597h15.494v2.919h-15.494V271.597z M269.316,275.075h15.494v2.919h-15.494V275.075z    M269.316,278.553h15.494v2.919h-15.494V278.553z"></path><path d="M297.439,287.754l-3.486-3.487c-0.109-0.108-0.287-0.108-0.396,0c-0.11,0.11-0.11,0.287,0,0.396l3.008,3.009h-9.955   c-0.002,0-0.002-0.001-0.003-0.001l-0.001,0.001h-3.802c-0.001,0-0.002-0.001-0.002-0.001c-0.002,0-0.002,0.001-0.003,0.001h-3.801   c-0.001,0-0.001-0.001-0.002-0.001c0,0-0.001,0.001-0.002,0.001h-3.802c-0.001,0-0.001-0.001-0.002-0.001   c0,0-0.001,0.001-0.002,0.001h-56.663v-66.429l3.009,3.009c0.055,0.055,0.126,0.082,0.198,0.082s0.143-0.027,0.198-0.082   c0.109-0.109,0.109-0.287,0-0.396l-3.486-3.487c-0.026-0.026-0.057-0.046-0.092-0.061c-0.001,0-0.002,0-0.004-0.001   c-0.032-0.013-0.066-0.02-0.102-0.02s-0.071,0.007-0.103,0.02c-0.001,0-0.002,0-0.004,0.001c-0.035,0.015-0.066,0.035-0.092,0.061   l-3.486,3.487c-0.109,0.109-0.109,0.287,0,0.396c0.055,0.055,0.127,0.082,0.199,0.082c0.071,0,0.143-0.027,0.198-0.082l3.009-3.009   v11.534h-3.207c-0.155,0-0.28,0.125-0.28,0.28s0.125,0.28,0.28,0.28h3.207v2.918h-3.207c-0.155,0-0.28,0.126-0.28,0.28   c0,0.155,0.125,0.28,0.28,0.28h3.207v2.918h-3.207c-0.155,0-0.28,0.125-0.28,0.279c0,0.155,0.125,0.28,0.28,0.28h3.207v2.918   h-3.207c-0.155,0-0.28,0.125-0.28,0.28s0.125,0.28,0.28,0.28h3.207v2.919h-3.207c-0.155,0-0.28,0.125-0.28,0.28   c0,0.154,0.125,0.279,0.28,0.279h3.207v2.918h-3.207c-0.155,0-0.28,0.125-0.28,0.28c0,0.154,0.125,0.28,0.28,0.28h3.207v2.918   h-3.207c-0.155,0-0.28,0.126-0.28,0.28s0.125,0.28,0.28,0.28h3.207v2.918h-3.207c-0.155,0-0.28,0.126-0.28,0.28   s0.125,0.28,0.28,0.28h3.207v2.919h-3.207c-0.155,0-0.28,0.124-0.28,0.279s0.125,0.279,0.28,0.279h3.207v2.919h-3.207   c-0.155,0-0.28,0.125-0.28,0.279c0,0.155,0.125,0.28,0.28,0.28h3.207v2.919h-3.207c-0.155,0-0.28,0.125-0.28,0.279   c0,0.155,0.125,0.28,0.28,0.28h3.207v2.919h-3.207c-0.155,0-0.28,0.125-0.28,0.28c0,0.154,0.125,0.278,0.28,0.278h3.207v2.919   h-3.207c-0.155,0-0.28,0.125-0.28,0.28c0,0.154,0.125,0.279,0.28,0.279h3.207v2.919h-3.207c-0.155,0-0.28,0.126-0.28,0.28   s0.125,0.28,0.28,0.28h3.207v2.918h-3.207c-0.155,0-0.28,0.126-0.28,0.28s0.125,0.28,0.28,0.28h3.207v5.918   c0,0.155,0.125,0.28,0.28,0.28h7.968v3.207c0,0.154,0.125,0.28,0.28,0.28s0.28-0.126,0.28-0.28v-3.207h2.919v3.207   c0,0.154,0.125,0.28,0.28,0.28c0.154,0,0.28-0.126,0.28-0.28v-3.207h2.918v3.207c0,0.154,0.125,0.28,0.28,0.28   c0.154,0,0.28-0.126,0.28-0.28v-3.207h2.918v3.207c0,0.154,0.125,0.28,0.28,0.28s0.28-0.126,0.28-0.28v-3.207h2.919v3.207   c0,0.154,0.125,0.28,0.28,0.28c0.155,0,0.28-0.126,0.28-0.28v-3.207h2.918v3.207c0,0.154,0.125,0.28,0.28,0.28   c0.155,0,0.28-0.126,0.28-0.28v-3.207h2.918v3.207c0,0.154,0.125,0.28,0.28,0.28c0.154,0,0.279-0.126,0.279-0.28v-3.207h2.919   v3.207c0,0.154,0.125,0.28,0.28,0.28c0.154,0,0.279-0.126,0.279-0.28v-3.207h2.919v3.207c0,0.154,0.125,0.28,0.28,0.28   c0.154,0,0.28-0.126,0.28-0.28v-3.207h2.919v3.207c0,0.154,0.126,0.28,0.28,0.28s0.278-0.126,0.278-0.28v-3.207h2.919v3.207   c0,0.154,0.126,0.28,0.28,0.28s0.28-0.126,0.28-0.28v-3.207h2.918v3.207c0,0.154,0.126,0.28,0.28,0.28s0.28-0.126,0.28-0.28v-3.207   h2.918v3.207c0,0.154,0.126,0.28,0.28,0.28s0.28-0.126,0.28-0.28v-3.207h2.917v3.207c0,0.154,0.126,0.28,0.28,0.28   s0.28-0.126,0.28-0.28v-3.207h2.918v3.207c0,0.154,0.126,0.28,0.28,0.28s0.28-0.126,0.28-0.28v-3.207h3.245v3.207   c0,0.154,0.126,0.28,0.28,0.28s0.28-0.126,0.28-0.28v-3.207h3.245v3.207c0,0.154,0.125,0.28,0.28,0.28   c0.154,0,0.279-0.126,0.279-0.28v-3.207h3.247v3.207c0,0.154,0.124,0.28,0.278,0.28c0.156,0,0.28-0.126,0.28-0.28v-3.207h9.679   l-3.009,3.01c-0.11,0.108-0.11,0.286,0,0.396c0.054,0.055,0.126,0.082,0.197,0.082s0.144-0.027,0.198-0.082l3.486-3.486   C297.547,288.041,297.547,287.863,297.439,287.754z"></path></g></svg>