<svg height='100px' width='100px'  fill="#ffffff" xmlns="http://www.w3.org/2000/svg" xmlns:xlink="http://www.w3.org/1999/xlink" version="1.1" x="0px" y="0px" viewBox="0 0 96 96" enable-background="new 0 0 96 96" xml:space="preserve"><g><path d="M15.4051,45.4357h1.4178l23.0752,24.1079V95l16.2039-7.5306V69.5268l23.0753-24.0911h1.4172   c3.3448,0,6.0661-2.7213,6.0661-6.0661s-2.7213-6.0656-6.0661-6.0656H15.4051c-3.3448,0-6.0656,2.7208-6.0656,6.0656   S12.0602,45.4357,15.4051,45.4357z M54.1946,68.7604v17.4919l-12.3892,5.7583V80.1009h4.7297v-1.9073h-4.7297V68.778   L19.4646,45.4375H76.534L54.1946,68.7604z M15.4051,35.2113h65.1894c2.2934,0,4.1588,1.8654,4.1588,4.1583   c0,2.2934-1.8654,4.1588-4.1588,4.1588H15.4051c-2.2929,0-4.1583-1.8654-4.1583-4.1588   C11.2467,37.0767,13.1122,35.2113,15.4051,35.2113z"></path><rect x="59.9288" y="60.6071" transform="matrix(-0.6917 0.7222 -0.7222 -0.6917 158.9749 55.2547)" width="15.5289" height="1.9076"></rect><rect x="74.7845" y="51.4639" transform="matrix(-0.6917 0.7222 -0.7222 -0.6917 167.1871 33.4649)" width="3.3323" height="1.9076"></rect><rect x="36.0839" y="75.3326" width="1.9073" height="2.5066"></rect><rect x="36.0839" y="80.1824" width="1.9073" height="9.4263"></rect><rect x="28.8747" y="50.9901" transform="matrix(-0.7226 0.6913 -0.6913 -0.7226 87.4175 69.1716)" width="1.9076" height="2.2745"></rect><rect x="34.6361" y="52.8063" transform="matrix(-0.7223 0.6916 -0.6916 -0.7223 101.5081 75.5344)" width="1.9069" height="10.6797"></rect><path d="M29.0199,22.1902h-5.9306v8.0721h5.9306V22.1902z M27.1126,28.355h-2.1159v-4.2575h2.1159V28.355z"></path><rect x="31.9195" y="23.1438" width="1.9073" height="6.8982"></rect><path d="M43.6498,22.1902h-5.9306v8.0721h5.9306V22.1902z M41.7425,28.355h-2.1159v-4.2575h2.1159V28.355z"></path><rect x="46.5499" y="23.1438" width="1.9073" height="6.8982"></rect><path d="M58.2803,22.1902h-5.9306v8.0721h5.9306V22.1902z M56.373,28.355H54.257v-4.2575h2.1159V28.355z"></path><rect x="61.1799" y="23.1438" width="1.9073" height="6.8982"></rect><path d="M43.6498,11.2701h-5.9306v8.0717h5.9306V11.2701z M41.7425,17.4344h-2.1159v-4.257h2.1159V17.4344z"></path><rect x="46.5499" y="12.2237" width="1.9073" height="6.8978"></rect><path d="M58.2803,11.2701h-5.9306v8.0717h5.9306V11.2701z M56.373,17.4344H54.257v-4.257h2.1159V17.4344z"></path><rect x="61.1799" y="12.2237" width="1.9073" height="6.8978"></rect><path d="M72.9102,11.2701h-5.9306v8.0717h5.9306V11.2701z M71.0029,17.4344H68.887v-4.257h2.1159V17.4344z"></path><rect x="46.5499" y="1.9537" width="1.9073" height="6.8978"></rect><rect x="53.5506" y="1.9537" width="1.9073" height="6.8978"></rect><path d="M65.2809,1h-5.9306v8.0717h5.9306V1z M63.3736,7.1644h-2.1159v-4.257h2.1159V7.1644z"></path><rect x="50.1891" y="38.4159" width="3.3858" height="1.9073"></rect><rect x="45.7546" y="38.4159" width="2.9564" height="1.9073"></rect><rect x="18.077" y="38.4159" width="25.4378" height="1.9073"></rect><rect x="48" y="78.1936" width="2.6552" height="1.9073"></rect></g></svg>