<svg height='100px' width='100px'  fill="#ffffff" xmlns="http://www.w3.org/2000/svg" xmlns:xlink="http://www.w3.org/1999/xlink" version="1.1" x="0px" y="0px" viewBox="0 0 96 96" enable-background="new 0 0 96 96" xml:space="preserve"><g><path d="M63.0225,23.1297c-0.7583-1.1828-1.573-2.3647-2.4192-3.5131l-1.5758,1.1618c0.8214,1.1145,1.6103,2.2614,2.3465,3.4089   L63.0225,23.1297z"></path><path d="M56.6772,17.7739l1.507-1.2498c-1.4123-1.704-2.9365-3.3759-4.5295-4.9694c-2.4154-2.4163-5.0124-4.6644-7.7185-6.682   l-1.1704,1.5701c2.6305,1.9612,5.1549,4.1466,7.5043,6.4965C53.82,14.4899,55.3031,16.1164,56.6772,17.7739z"></path><path d="M11.8062,69.4411l36.4263-38.3876c8.6964,8.5382,13.5743,17.7448,15.4173,25.5816l0.6368,2.7051l1.2-2.5067   c7.1956-15.0288-6.9861-42.5983-30.6588-54.4407c-3.1953-1.5963-7.1523-1.08-9.8059,1.5744   c-4.3581,4.3581-2.7515,11.7866,3.0245,13.8961c4.3205,1.5777,8.6025,3.9083,12.6901,6.8541L2.946,60.5828   c-2.5466,2.4261-2.6044,6.4772-0.1109,8.9697C5.319,72.0375,9.3725,71.9946,11.8062,69.4411z M26.4065,5.3514   c2.0622-2.0614,5.1128-2.423,7.5454-1.2067c22.1265,11.0671,34.5852,35.2506,30.7899,49.0869   c-5.0721-16.075-20.3249-31.4746-36.0241-37.2079C24.2992,14.4101,23.0512,8.7077,26.4065,5.3514z M4.2952,62.0018l38.0307-36.0923   c1.5306,1.1797,3.0302,2.4417,4.4883,3.7929l-36.427,38.3889c-1.6978,1.7812-4.4886,1.7564-6.1675,0.0765   C2.5197,66.467,2.5335,63.6809,4.2952,62.0018z"></path><path d="M57.2308,31.4864c-1.0882-2.1366-2.4163-4.2255-3.9463-6.2086l-1.551,1.1962c1.4563,1.8871,2.7185,3.8726,3.7531,5.9017   L57.2308,31.4864z"></path><path d="M30.0879,8.4562l-0.6464,1.8483c0.1119,0.0392,11.3081,4.0371,19.891,13.33l1.4381-1.3282   C41.8454,12.642,30.5641,8.6226,30.0879,8.4562z"></path><rect x="20.8496" y="38.7397" transform="matrix(0.7071 0.7071 -0.7071 0.7071 42.144 -0.6268)" width="1.9581" height="23.6385"></rect><rect x="33.0637" y="36.2735" transform="matrix(0.7071 0.7071 -0.7071 0.7071 37.085 -12.8409)" width="1.9581" height="4.143"></rect><rect x="20.4541" y="82.7989" width="1.9583" height="10.9031"></rect><path d="M24.8881,94.5105h8.5973V81.9904h-8.5973V94.5105z M26.8464,83.9487h4.6806v8.6035h-4.6806V83.9487z"></path><rect x="35.8328" y="82.7989" width="1.9583" height="10.9031"></rect><path d="M40.2667,94.5105h8.5973V81.9904h-8.5973V94.5105z M42.225,83.9487h4.6806v8.6035H42.225V83.9487z"></path><rect x="51.2115" y="82.7989" width="1.9583" height="10.9031"></rect><path d="M55.6454,94.5105h8.5973V81.9904h-8.5973V94.5105z M57.6037,83.9487h4.6806v8.6035h-4.6806V83.9487z"></path><rect x="66.5901" y="82.7989" width="1.9583" height="10.9031"></rect><path d="M79.6213,81.9904H71.025v12.5201h8.5963V81.9904z M77.663,92.5522h-4.6797v-8.6035h4.6797V92.5522z"></path><rect x="81.9688" y="82.7989" width="1.9583" height="10.9031"></rect><path d="M95,81.9904h-8.5963v12.5201H95V81.9904z M93.0417,92.5522H88.362v-8.6035h4.6797V92.5522z"></path><rect x="20.4541" y="67.512" width="1.9583" height="10.9031"></rect><path d="M33.4853,66.7035h-8.5973v12.5201h8.5973V66.7035z M31.527,77.2653h-4.6806v-8.6035h4.6806V77.2653z"></path><rect x="35.8328" y="67.512" width="1.9583" height="10.9031"></rect><path d="M40.2667,79.2236h8.5973V66.7035h-8.5973V79.2236z M42.225,68.6618h4.6806v8.6035H42.225V68.6618z"></path><rect x="51.2115" y="67.512" width="1.9583" height="10.9031"></rect><path d="M64.2427,66.7035h-8.5973v12.5201h8.5973V66.7035z M62.2843,77.2653h-4.6806v-8.6035h4.6806V77.2653z"></path><rect x="66.5901" y="67.512" width="1.9583" height="10.9031"></rect><path d="M79.6213,66.7035H71.025v12.5201h8.5963V66.7035z M77.663,77.2653h-4.6797v-8.6035h4.6797V77.2653z"></path><rect x="81.9688" y="67.512" width="1.9583" height="10.9031"></rect><path d="M95,66.7035h-8.5963v12.5201H95V66.7035z M93.0417,77.2653H88.362v-8.6035h4.6797V77.2653z"></path><path d="M48.864,51.4162h-8.5973v12.5206h8.5973V51.4162z M46.9057,61.9784H42.225v-8.6039h4.6806V61.9784z"></path><rect x="51.2115" y="52.2246" width="1.9583" height="10.9036"></rect><path d="M79.6213,51.4162H71.025v12.5206h8.5963V51.4162z M77.663,61.9784h-4.6797v-8.6039h4.6797V61.9784z"></path><rect x="81.9688" y="52.2246" width="1.9583" height="10.9036"></rect><path d="M95,51.4162h-8.5963v12.5206H95V51.4162z M93.0417,61.9784H88.362v-8.6039h4.6797V61.9784z"></path><rect x="51.2115" y="40.9643" width="1.9583" height="6.877"></rect><path d="M79.6213,36.1293H71.025v12.5206h8.5963V36.1293z M77.663,46.6915h-4.6797v-8.604h4.6797V46.6915z"></path><rect x="81.9688" y="36.9378" width="1.9583" height="10.9036"></rect><path d="M95,36.1293h-8.5963v12.5206H95V36.1293z M93.0417,46.6915H88.362v-8.604h4.6797V46.6915z"></path><rect x="8.1532" y="37.94" transform="matrix(0.7071 -0.7071 0.7071 0.7071 -22.0306 24.6514)" width="21.1767" height="1.9581"></rect><rect x="27.4823" y="26.679" transform="matrix(0.7072 -0.7071 0.7071 0.7072 -10.7697 29.3133)" width="5.041" height="1.9581"></rect></g></svg>