<svg height='100px' width='100px'  fill="#ffffff" xmlns="http://www.w3.org/2000/svg" xmlns:xlink="http://www.w3.org/1999/xlink" version="1.1" x="0px" y="0px" viewBox="0 0 100 100" style="enable-background:new 0 0 100 100;" xml:space="preserve"><style type="text/css">
	.st0{fill:none;}
</style><path class="st0" d="M20,19.4c0.6,2.8,3.3,4.5,6.1,4.8v-0.1H76V12.4H27.6v0c-3.3,0-6.8,1.6-7.6,4.5L20,19.4z"></path><path d="M77.5,13.8H45.6c-0.8,0-1.5,0.7-1.5,1.5s0.7,1.5,1.5,1.5h31.9c0.8,0,1.5-0.7,1.5-1.5S78.3,13.8,77.5,13.8z"></path><path d="M54.3,18.9H35.2c-0.8,0-1.5,0.7-1.5,1.5s0.7,1.5,1.5,1.5h19.1c0.8,0,1.5-0.7,1.5-1.5S55.1,18.9,54.3,18.9z"></path><g><path d="M51.1,40.5c-4.5,2.5-6.1,8.2-3.7,12.6c2.5,4.5,8.2,6.1,12.6,3.7c4.5-2.5,6.1-8.2,3.7-12.6C61.4,39.8,55.6,38.1,51.1,40.5z"></path><path d="M80.6,24.2V7.7H80h-4H26.8v0C21.1,8,15.2,11.7,15.2,18.1c0,0.6-0.1,2,0,2.6l0,60.9h0c0,0,0,0,0,0l0,0.7h0   c0.5,6.3,6.5,9.7,12.3,9.7l57.1,0.3l0.1-63.5l0-4.7H80.6z M63,61.8c-2.6,1.4-5.4,2.1-8.2,1.9l-0.3,1c0.3,0.7,0.3,1.5,0.1,2.1   l-4.3,15c-0.3,1.1-1.2,1.7-1.5,1.9c-0.7,0.4-1.7,0.6-2.5,0.2c-0.6-0.2-1.3-0.7-1.7-1.5c-1.1-0.9-0.7-2.1-0.6-2.6l4.3-15   c0.2-0.5,0.6-1.2,1.2-1.7l0.2-0.9c-2.9-1.2-5.4-3.5-7.1-6.6c-4-7.2-1.3-16.2,5.8-20.2c7.2-4,16.2-1.3,20.2,6   C72.8,48.7,70.2,57.8,63,61.8z M76,24.2l-49.9,0.1c-2.8-0.3-5.4-2-6.1-4.8l0-2.5c0.7-3,4.2-4.5,7.6-4.5v0H76V24.2z"></path></g></svg>