<svg height='100px' width='100px'  fill="#ffffff" xmlns="http://www.w3.org/2000/svg" xmlns:xlink="http://www.w3.org/1999/xlink" version="1.1" x="0px" y="0px" viewBox="0 0 512 512" enable-background="new 0 0 512 512" xml:space="preserve"><path d="M507,249l-81.3-66.2c-6.4-6.4-17.3-1.9-17.3,7.2v40.7h-127v-127h40.7c9,0,13.5-10.9,7.2-17.3L263.3,5c-4-4-10.4-4-14.3,0  l-66.2,81.3c-6.4,6.4-1.9,17.3,7.2,17.3h40.7v127h-127v-40.7c0-9-10.9-13.5-17.3-7.2L5,248.7c-4,4-4,10.4,0,14.3l81.3,66.2  c6.4,6.4,17.3,1.9,17.3-7.2v-40.7h127v127h-40.7c-9,0-13.5,10.9-7.2,17.3l65.9,81.3c4,4,10.4,4,14.3,0l66.2-81.3  c6.4-6.4,1.9-17.3-7.2-17.3h-40.7v-127h127V322c0,9,10.9,13.5,17.3,7.2l81.3-65.9C511,259.3,511,252.9,507,249z"></path></svg>