<svg xmlns="http://www.w3.org/2000/svg" viewBox="0 0 184.74 105.58"><defs><style>.cls-1{font-size:42.4px;font-family:MyriadPro-Semibold, Myriad Pro;font-weight:600;}.cls-1,.cls-9{fill:#ffd100;}.cls-2{opacity:0.69;fill:#6b6c6f;}.cls-2,.cls-3{font-size:45.09px;font-family:MyriadPro-Cond, Myriad Pro;}.cls-3{opacity:0.64;fill:#a7a9ac;}.cls-4{letter-spacing:-0.01em;}.cls-5{opacity:0.77;}.cls-6{fill:#5f6062;}.cls-7{fill:#a9abae;opacity:0.62;}.cls-8{fill:none;stroke:#fff;stroke-linecap:round;stroke-linejoin:round;stroke-width:0.22px;opacity:0.31;}.cls-10{fill:#231f20;}</style></defs><g id="Layer_2" data-name="Layer 2"><g id="Layer_1-2" data-name="Layer 1"><text class="cls-1" transform="translate(130.55 39.13)">+</text><text class="cls-2" transform="translate(86.13 65.61)">politics</text><text class="cls-3" transform="translate(54.8 37.74)">p<tspan class="cls-4" x="17.99" y="0">r</tspan><tspan x="28.9" y="0">axis</tspan></text><g class="cls-5"><path class="cls-6" d="M1.07,104.47V96.14a20.85,20.85,0,0,1,.85-6.42,10.12,10.12,0,0,1,2.9-4.3,18.2,18.2,0,0,1,8.14-4,61.42,61.42,0,0,1,13.91-1.2,56.41,56.41,0,0,1,13.54,1.33,14.91,14.91,0,0,1,7.66,4.3Q51.36,89.5,51.36,99v5.47ZM45.43,97.7q0-6.18-3.75-8.27T27.13,87.28q-11.64,0-16,2c-2.9,1.37-4.36,3.88-4.36,7.52v.85Z"/><path class="cls-6" d="M1.07,66.66V61.39L51.36,50.6v6.71L41.55,59.2v10l9.81,1.92V77.6Zm35.24-6.48-8,1.5q-8.18,1.5-17.46,2.44,4.53.47,9.17,1.17c3.09.48,6.38,1,9.85,1.7l6.45,1.23Z"/><path class="cls-6" d="M1.07,51.71v-22H7v7.59H51.36V43.9H7v7.81Z"/><path class="cls-6" d="M1.07,19.7V14.42L51.36,3.64v6.71l-9.81,1.89v10l9.81,1.93v6.51Zm35.24-6.48-8,1.49q-8.18,1.5-17.46,2.45,4.53.45,9.17,1.17c3.09.48,6.38,1,9.85,1.69l6.45,1.24Z"/></g><circle class="cls-7" cx="1.03" cy="104.51" r="1.03"/><circle class="cls-7" cx="6.93" cy="97.74" r="1.03"/><circle class="cls-7" cx="45.3" cy="97.57" r="1.03"/><circle class="cls-7" cx="36.29" cy="68.25" r="1.03"/><circle class="cls-7" cx="6.93" cy="43.89" r="1.03"/><circle class="cls-7" cx="6.93" cy="37.28" r="1.03"/><circle class="cls-7" cx="6.93" cy="29.66" r="1.03"/><circle class="cls-7" cx="11.15" cy="17.18" r="1.03"/><circle class="cls-7" cx="11.15" cy="64.19" r="1.03"/><circle class="cls-7" cx="51.22" cy="104.55" r="1.03"/><circle class="cls-7" cx="51.22" cy="77.72" r="1.03"/><circle class="cls-7" cx="51.22" cy="71.06" r="1.03"/><circle class="cls-7" cx="51.22" cy="57.36" r="1.03"/><circle class="cls-7" cx="51.22" cy="50.58" r="1.03"/><circle class="cls-7" cx="51.22" cy="43.94" r="1.03"/><circle class="cls-7" cx="45.3" cy="43.82" r="1.03"/><circle class="cls-7" cx="51.22" cy="37.28" r="1.03"/><circle class="cls-7" cx="36.23" cy="60.23" r="1.03"/><circle class="cls-7" cx="1.03" cy="66.59" r="1.03"/><circle class="cls-7" cx="1.03" cy="61.58" r="1.03"/><circle class="cls-7" cx="1.03" cy="51.6" r="1.03"/><circle class="cls-7" cx="1.03" cy="29.83" r="1.03"/><circle class="cls-7" cx="1.03" cy="19.62" r="1.03"/><circle class="cls-7" cx="1.03" cy="14.33" r="1.03"/><circle class="cls-7" cx="36.01" cy="21.3" r="1.03"/><circle class="cls-7" cx="36.01" cy="13.48" r="1.03"/><circle class="cls-7" cx="41.57" cy="12.27" r="1.03"/><circle class="cls-7" cx="41.57" cy="22.21" r="1.03"/><circle class="cls-7" cx="41.57" cy="59.34" r="1.03"/><circle class="cls-7" cx="41.57" cy="69.27" r="1.03"/><circle class="cls-7" cx="51.22" cy="3.58" r="1.03"/><circle class="cls-7" cx="51.22" cy="10.35" r="1.03"/><circle class="cls-7" cx="51.22" cy="24.13" r="1.03"/><circle class="cls-7" cx="51.22" cy="30.63" r="1.03"/><line class="cls-8" x1="51.22" y1="104.6" x2="51.22" y2="3.63"/><line class="cls-8" x1="36.34" y1="68.39" x2="36.34" y2="13.32"/><line class="cls-8" x1="6.93" y1="97.64" x2="6.93" y2="29.69"/><line class="cls-8" x1="1.03" y1="104.5" x2="1.03" y2="14.55"/><line class="cls-8" x1="11.14" y1="64.09" x2="11.16" y2="17.06"/><line class="cls-8" x1="45.3" y1="97.51" x2="45.3" y2="43.82"/><line class="cls-8" x1="41.57" y1="69.06" x2="41.57" y2="12.23"/><path class="cls-9" d="M67.28,84.47V69.56l1,.23L78.65,80.22v.86L74.71,81s-.54.85-.15.67l0,.3a19.72,19.72,0,0,1,1.94,4.37L74,87.08l-2.6-5.24L69.22,84c-.24,0-.56.8-.8.81C68,84.79,67.68,84.45,67.28,84.47Z"/><path class="cls-10" d="M77.9,79.41v-1h-1v1h1v1H73.81v2.06h1v1h0v1h1v-1h0v-1h-1c0-.34,0-.69,0-1h4v-2Z"/><path class="cls-10" d="M71.9,72.4h-1v1h1Z"/><path class="cls-10" d="M72.9,73.4h-1v1h1Z"/><path class="cls-10" d="M73.9,74.4h-1v1h1Z"/><path class="cls-10" d="M74.9,75.4h-1v1h1Z"/><path class="cls-10" d="M75.9,76.4h-1v1h1Z"/><path class="cls-10" d="M76.9,77.4h-1v1h1Z"/><path class="cls-10" d="M73.69,87.54h2.12v-1H73.69Z"/><path class="cls-10" d="M72.7,85.51h0v1h1v-1h0v-1h-1Z"/><path class="cls-10" d="M75.81,85.51h0v1h1v-1h0v-1h-1Z"/><path class="cls-10" d="M69.91,70.4h-1v1h1Z"/><path class="cls-10" d="M70.9,71.4h-1v1h1Z"/><path class="cls-10" d="M71.69,82.47v-1h-1v1h-1v1h-1v1h-.78V70.4h1v-1h-1v-1h-1V85.49h1.81v-1h1v-1h1v-1h1v2h1v-2Z"/></g></g></svg>