<svg height='100px' width='100px'  fill="#ffffff" xmlns="http://www.w3.org/2000/svg" xmlns:xlink="http://www.w3.org/1999/xlink" version="1.1" x="0px" y="0px" viewBox="206 206 100 100" enable-background="new 206 206 100 100" xml:space="preserve"><g><path d="M273.697,238.027h-3.467c-0.003,0-0.008,0-0.012,0h-6.064c-0.005,0-0.008,0-0.013,0h-6.062c-0.004,0-0.008,0-0.013,0   h-6.063c-0.004,0-0.008,0-0.013,0h-6.063c-0.004,0-0.009,0-0.013,0h-7.609c-0.154,0-0.279,0.125-0.279,0.279v7.611   c0,0.003,0,0.005,0,0.008v12.143c0,0.003,0,0.006,0,0.008v6.069c0,0.002,0,0.004,0,0.008v6.068c0,0.002,0,0.004,0,0.008v3.469   c0,0.154,0.125,0.279,0.279,0.279h3.045c0.001,0,0.003,0.001,0.004,0.001s0.003-0.001,0.004-0.001h6.065   c0.001,0,0.003,0.001,0.004,0.001s0.003-0.001,0.004-0.001h6.07c0.001,0,0.003,0.001,0.004,0.001c0.002,0,0.003-0.001,0.004-0.001   h6.067c0.001,0,0.004,0.001,0.005,0.001s0.003-0.001,0.004-0.001h6.068c0.002,0,0.003,0.001,0.004,0.001   c0.002,0,0.003-0.001,0.005-0.001h8.032c0.154,0,0.279-0.125,0.279-0.279v-35.391C273.976,238.152,273.851,238.027,273.697,238.027   z M238.584,258.186l2.276-2.276c0.109-0.109,0.109-0.286,0-0.395s-0.286-0.109-0.394,0l-1.882,1.882v-11.362l1.674-1.674   c0.109-0.109,0.109-0.286,0-0.395c-0.109-0.109-0.285-0.109-0.395,0l-1.279,1.28v-6.663h6.662l-1.767,1.767   c-0.109,0.108-0.109,0.285,0,0.394c0.054,0.054,0.126,0.082,0.197,0.082s0.143-0.027,0.197-0.082l2.161-2.161h5.288l-11.146,11.143   c-0.109,0.109-0.109,0.286,0,0.395c0.054,0.055,0.125,0.082,0.197,0.082c0.071,0,0.143-0.027,0.197-0.082l11.54-11.538h5.287   l-2.553,2.553c-0.109,0.109-0.109,0.286,0,0.395c0.054,0.054,0.126,0.082,0.197,0.082c0.071,0,0.143-0.027,0.197-0.082l2.948-2.948   h5.285l-24.889,24.889V258.186z M273.417,273.419h-7.084l7.084-7.086V273.419L273.417,273.419z M273.417,247.314l-2.413,2.414   c-0.109,0.109-0.109,0.286,0,0.394c0.055,0.055,0.126,0.082,0.197,0.082s0.143-0.027,0.197-0.082l2.02-2.019v11.367l-5.712,5.711   c-0.108,0.109-0.108,0.285,0,0.395c0.055,0.054,0.125,0.082,0.197,0.082c0.071,0,0.144-0.028,0.197-0.082l5.317-5.317v5.286   l-7.873,7.875h-5.288l4.819-4.819c0.108-0.109,0.108-0.285,0-0.395s-0.286-0.109-0.395,0l-5.213,5.214h-5.288l17.506-17.508   c0.109-0.109,0.109-0.286,0-0.395c-0.108-0.109-0.285-0.109-0.395,0l-17.9,17.903h-5.29l4.323-4.323   c0.109-0.108,0.109-0.285,0-0.395c-0.109-0.108-0.286-0.108-0.394,0l-4.717,4.718h-5.286l29.056-29.057   c0.109-0.109,0.109-0.286,0-0.394c-0.108-0.109-0.285-0.109-0.394,0l-29.451,29.451h-2.656v-3.08l5.815-5.815   c0.109-0.109,0.109-0.285,0-0.394c-0.109-0.11-0.286-0.11-0.394,0l-5.421,5.421v-5.288l25.677-25.678h5.288l-7.817,7.817   c-0.108,0.109-0.108,0.286,0,0.395c0.055,0.054,0.125,0.082,0.197,0.082c0.071,0,0.144-0.027,0.197-0.082l8.212-8.212h3.079   V247.314L273.417,247.314z"></path><path d="M252.015,243.967l-8.852,8.852c-0.108,0.108-0.108,0.285,0,0.394c0.055,0.055,0.126,0.082,0.198,0.082   c0.071,0,0.143-0.027,0.197-0.082l8.852-8.851c0.109-0.109,0.109-0.286,0-0.395S252.124,243.858,252.015,243.967z"></path><path d="M258.407,249.728l-11.578,11.578c-0.109,0.109-0.109,0.286,0,0.395c0.054,0.055,0.126,0.081,0.197,0.081   s0.143-0.026,0.197-0.081l11.578-11.578c0.109-0.109,0.109-0.286,0-0.395S258.516,249.619,258.407,249.728z"></path><path d="M267.594,253.139l-11.93,11.931c-0.109,0.109-0.109,0.286,0,0.395c0.054,0.055,0.125,0.082,0.197,0.082   c0.071,0,0.143-0.027,0.197-0.082l11.93-11.932c0.109-0.108,0.109-0.285,0-0.394C267.88,253.03,267.703,253.03,267.594,253.139z"></path><path d="M284.853,254.459c0.154,0,0.279-0.125,0.279-0.279v-2.039h9.437c0.135,0.843,0.865,1.49,1.746,1.49   c0.975,0,1.769-0.793,1.769-1.769c0-0.976-0.794-1.77-1.769-1.77c-0.88,0-1.61,0.647-1.746,1.49h-9.437v-2.038   c0-0.154-0.125-0.279-0.279-0.279h-1.495v-3.086h1.495c0.154,0,0.279-0.125,0.279-0.279v-2.039h9.437   c0.135,0.844,0.865,1.491,1.746,1.491c0.975,0,1.769-0.793,1.769-1.769c0-0.976-0.794-1.77-1.769-1.77   c-0.88,0-1.61,0.647-1.746,1.49h-9.437v-2.039c0-0.154-0.125-0.279-0.279-0.279h-1.495v-3.085h1.495   c0.154,0,0.279-0.125,0.279-0.279v-2.039h9.437c0.135,0.843,0.865,1.491,1.746,1.491c0.975,0,1.769-0.794,1.769-1.77   s-0.794-1.769-1.769-1.769c-0.88,0-1.61,0.646-1.746,1.489h-9.437v-2.038c0-0.154-0.125-0.279-0.279-0.279h-1.495v-0.423   c0-2.008-1.635-3.643-3.643-3.643h-0.423v-1.496c0-0.154-0.126-0.279-0.279-0.279h-2.038v-9.436c0.843-0.135,1.49-0.865,1.49-1.745   c0-0.976-0.795-1.77-1.77-1.77c-0.976,0-1.771,0.794-1.771,1.77c0,0.881,0.648,1.61,1.492,1.745v9.437h-2.039   c-0.154,0-0.279,0.125-0.279,0.279v1.496h-3.086v-1.496c0-0.154-0.124-0.279-0.277-0.279h-2.038v-9.437   c0.842-0.135,1.489-0.865,1.489-1.745c0-0.976-0.794-1.77-1.769-1.77c-0.977,0-1.771,0.794-1.771,1.77   c0,0.881,0.647,1.61,1.492,1.745v9.437h-2.04c-0.153,0-0.278,0.125-0.278,0.279v1.496h-3.086v-1.496   c0-0.154-0.125-0.279-0.279-0.279h-2.038v-9.437c0.844-0.134,1.491-0.864,1.491-1.745c0-0.976-0.794-1.769-1.771-1.769   c-0.975,0-1.769,0.793-1.769,1.769c0,0.88,0.647,1.61,1.491,1.745v9.437h-2.039c-0.153,0-0.278,0.125-0.278,0.279v1.496h-3.085   v-1.496c0-0.154-0.125-0.279-0.279-0.279h-2.04v-9.437c0.844-0.135,1.491-0.865,1.491-1.745c0-0.976-0.793-1.77-1.769-1.77   c-0.976,0-1.77,0.793-1.77,1.77c0,0.88,0.647,1.61,1.49,1.745v9.437h-2.038c-0.154,0-0.279,0.125-0.279,0.279v1.496h-3.085v-1.496   c0-0.154-0.125-0.279-0.278-0.279h-2.04v-9.437c0.844-0.135,1.491-0.865,1.491-1.745c0-0.976-0.793-1.77-1.769-1.77   s-1.77,0.793-1.77,1.77c0,0.88,0.647,1.61,1.49,1.745v9.437h-2.039c-0.154,0-0.279,0.125-0.279,0.279v1.496h-3.085v-1.496   c0-0.154-0.125-0.279-0.279-0.279h-2.038v-9.437c0.843-0.134,1.491-0.864,1.491-1.745c0-0.976-0.793-1.77-1.769-1.77   s-1.77,0.793-1.77,1.77c0,0.88,0.646,1.61,1.49,1.745v9.437h-2.039c-0.154,0-0.279,0.125-0.279,0.279v1.496h-0.425   c-2.008,0-3.642,1.634-3.642,3.642v0.424h-1.496c-0.154,0-0.278,0.125-0.278,0.278v2.038h-9.438   c-0.134-0.843-0.864-1.489-1.744-1.489c-0.976,0-1.77,0.793-1.77,1.769c0,0.976,0.793,1.77,1.77,1.77   c0.88,0,1.61-0.647,1.745-1.491h9.438v2.039c0,0.154,0.125,0.279,0.278,0.279h1.496v3.085h-1.496c-0.154,0-0.278,0.125-0.278,0.279   v2.039h-9.438c-0.135-0.843-0.865-1.49-1.745-1.49c-0.976,0-1.77,0.793-1.77,1.769s0.794,1.769,1.77,1.769   c0.88,0,1.611-0.647,1.745-1.491h9.438v2.039c0,0.154,0.125,0.279,0.279,0.279h1.495v3.085h-1.495   c-0.155,0-0.279,0.125-0.279,0.279v2.039h-9.438c-0.135-0.843-0.864-1.491-1.745-1.491c-0.976,0-1.77,0.794-1.77,1.77   s0.794,1.769,1.77,1.769c0.88,0,1.611-0.647,1.745-1.49h9.438v2.039c0,0.154,0.125,0.279,0.279,0.279h1.495v3.084h-1.495   c-0.154,0-0.279,0.125-0.279,0.279v2.039h-9.438c-0.134-0.844-0.864-1.491-1.745-1.491c-0.976,0-1.77,0.794-1.77,1.769   c0,0.977,0.794,1.771,1.77,1.771c0.88,0,1.61-0.647,1.745-1.491h9.438v2.04c0,0.153,0.125,0.277,0.279,0.277h1.495v3.086h-1.495   c-0.155,0-0.279,0.125-0.279,0.278v2.04h-9.438c-0.134-0.844-0.864-1.492-1.745-1.492c-0.976,0-1.77,0.794-1.77,1.77   s0.794,1.77,1.77,1.77c0.88,0,1.61-0.647,1.745-1.489h9.438v2.038c0,0.153,0.125,0.279,0.278,0.279h1.496v3.084h-1.496   c-0.154,0-0.278,0.125-0.278,0.279v2.039h-9.438c-0.134-0.844-0.864-1.49-1.745-1.49c-0.976,0-1.77,0.793-1.77,1.769   c0,0.975,0.794,1.77,1.77,1.77c0.88,0,1.61-0.647,1.745-1.49h9.437v2.039c0,0.152,0.125,0.278,0.279,0.278h1.495v0.424   c0,2.009,1.634,3.642,3.642,3.642h0.424v1.496c0,0.154,0.125,0.278,0.279,0.278h2.038v9.438c-0.843,0.136-1.49,0.865-1.49,1.745   c0,0.976,0.793,1.77,1.769,1.77s1.769-0.794,1.769-1.77c0-0.88-0.647-1.61-1.491-1.745v-9.438h2.039   c0.154,0,0.279-0.124,0.279-0.278v-1.496h3.085v1.496c0,0.154,0.125,0.278,0.279,0.278h2.039v9.438   c-0.843,0.136-1.49,0.865-1.49,1.745c0,0.976,0.793,1.77,1.77,1.77c0.975,0,1.769-0.794,1.769-1.77c0-0.88-0.647-1.61-1.491-1.745   v-9.438h2.04c0.154,0,0.278-0.124,0.278-0.278v-1.496h3.085v1.496c0,0.154,0.125,0.278,0.279,0.278h2.038v9.438   c-0.843,0.135-1.49,0.865-1.49,1.745c0,0.976,0.793,1.77,1.77,1.77c0.975,0,1.769-0.794,1.769-1.77c0-0.88-0.647-1.61-1.49-1.745   v-9.438h2.039c0.154,0,0.279-0.124,0.279-0.278v-1.496h3.085v1.496c0,0.154,0.124,0.278,0.278,0.278h2.039v9.438   c-0.844,0.135-1.491,0.865-1.491,1.745c0,0.976,0.794,1.77,1.769,1.77c0.977,0,1.771-0.794,1.771-1.77   c0-0.88-0.647-1.61-1.491-1.745v-9.438h2.04c0.153,0,0.277-0.124,0.277-0.278v-1.496h3.086v1.496c0,0.154,0.125,0.278,0.278,0.278   h2.04v9.438c-0.845,0.135-1.492,0.865-1.492,1.745c0,0.976,0.794,1.77,1.771,1.77c0.975,0,1.769-0.794,1.769-1.77   c0-0.88-0.646-1.609-1.489-1.745v-9.438h2.038c0.153,0,0.279-0.124,0.279-0.278v-1.496h3.085v1.496   c0,0.154,0.124,0.278,0.278,0.278h2.039v9.438c-0.844,0.135-1.49,0.865-1.49,1.745c0,0.976,0.793,1.77,1.769,1.77   c0.975,0,1.77-0.794,1.77-1.77c0-0.88-0.647-1.609-1.49-1.745v-9.438h2.039c0.154,0,0.278-0.124,0.278-0.278v-1.496h0.423   c2.01,0,3.645-1.633,3.645-3.642v-0.424h1.494c0.154,0,0.279-0.126,0.279-0.278v-2.039h9.437c0.136,0.843,0.865,1.49,1.745,1.49   c0.976,0,1.77-0.794,1.77-1.77s-0.794-1.769-1.77-1.769c-0.88,0-1.61,0.646-1.745,1.49h-9.437v-2.039   c0-0.153-0.125-0.278-0.279-0.278h-1.494v-3.085h1.494c0.154,0,0.279-0.126,0.279-0.279v-2.038h9.437   c0.136,0.842,0.865,1.489,1.745,1.489c0.976,0,1.77-0.794,1.77-1.769c0-0.976-0.794-1.771-1.77-1.771   c-0.88,0-1.61,0.648-1.745,1.491h-9.437v-2.038c0-0.154-0.125-0.279-0.279-0.279h-1.494v-3.086h1.494   c0.154,0,0.279-0.124,0.279-0.277v-2.04h9.437c0.135,0.844,0.865,1.491,1.745,1.491c0.976,0,1.77-0.794,1.77-1.769   c0-0.977-0.794-1.771-1.77-1.771c-0.88,0-1.61,0.647-1.745,1.491h-9.437v-2.039c0-0.153-0.125-0.278-0.279-0.278h-1.494v-3.085   H284.853z M296.314,250.652c0.669,0,1.212,0.543,1.212,1.211s-0.543,1.211-1.212,1.211c-0.668,0-1.212-0.543-1.212-1.211   S295.646,250.652,296.314,250.652z M296.314,242.374c0.669,0,1.212,0.543,1.212,1.211s-0.543,1.211-1.212,1.211   c-0.668,0-1.212-0.543-1.212-1.211S295.646,242.374,296.314,242.374z M296.314,234.096c0.668,0,1.212,0.543,1.212,1.211   c0,0.668-0.544,1.211-1.212,1.211s-1.212-0.543-1.212-1.211C295.103,234.639,295.646,234.096,296.314,234.096z M283.358,233.268   h1.217v4.078h-1.217V233.268z M283.358,241.547h1.217v4.077h-1.217V241.547z M283.358,249.824h1.217v4.077h-1.217V249.824z    M215.688,236.518c-0.668,0-1.212-0.543-1.212-1.212c0-0.667,0.543-1.211,1.212-1.211c0.667,0,1.211,0.543,1.211,1.211   C216.899,235.975,216.356,236.518,215.688,236.518z M228.644,237.345h-1.216v-4.078h1.216V237.345z M215.688,244.796   c-0.668,0-1.212-0.543-1.212-1.211s0.543-1.211,1.212-1.211c0.667,0,1.211,0.543,1.211,1.211S216.356,244.796,215.688,244.796z    M228.644,245.623h-1.216v-4.078h1.216V245.623z M215.688,253.074c-0.668,0-1.212-0.544-1.212-1.211   c0-0.668,0.543-1.212,1.212-1.212c0.667,0,1.211,0.543,1.211,1.212C216.899,252.53,216.356,253.074,215.688,253.074z    M228.644,253.901h-1.216v-4.077h1.216V253.901z M215.688,261.351c-0.668,0-1.212-0.543-1.212-1.212   c0-0.668,0.543-1.211,1.212-1.211c0.667,0,1.211,0.543,1.211,1.211C216.899,260.808,216.356,261.351,215.688,261.351z    M228.644,262.179h-1.216V258.1h1.216V262.179z M215.688,269.629c-0.668,0-1.212-0.543-1.212-1.211   c0-0.669,0.543-1.212,1.212-1.212c0.667,0,1.211,0.543,1.211,1.212C216.899,269.086,216.356,269.629,215.688,269.629z    M228.644,270.457h-1.216v-4.077h1.216V270.457z M215.688,277.907c-0.668,0-1.212-0.544-1.212-1.212s0.543-1.212,1.212-1.212   c0.667,0,1.211,0.544,1.211,1.212S216.356,277.907,215.688,277.907z M228.644,278.734h-1.216v-4.077h1.216V278.734z    M275.484,215.688c0-0.668,0.543-1.211,1.212-1.211c0.668,0,1.212,0.543,1.212,1.211s-0.544,1.211-1.212,1.211   C276.027,216.9,275.484,216.356,275.484,215.688z M274.657,227.427h4.077v1.217h-4.077V227.427z M267.206,215.688   c0-0.668,0.543-1.211,1.212-1.211c0.668,0,1.211,0.543,1.211,1.211s-0.543,1.211-1.211,1.211   C267.749,216.9,267.206,216.356,267.206,215.688z M266.379,227.427h4.077v1.217h-4.077V227.427z M258.929,215.688   c0-0.668,0.543-1.211,1.212-1.211c0.667,0,1.211,0.543,1.211,1.211s-0.544,1.211-1.211,1.211   C259.472,216.9,258.929,216.356,258.929,215.688z M258.102,227.427h4.077v1.217h-4.077V227.427z M250.651,215.688   c0-0.668,0.543-1.211,1.212-1.211s1.212,0.543,1.212,1.211s-0.543,1.211-1.212,1.211S250.651,216.356,250.651,215.688z    M249.824,227.427h4.078v1.217h-4.078V227.427z M242.373,215.688c0-0.668,0.543-1.211,1.212-1.211c0.668,0,1.211,0.543,1.211,1.211   s-0.543,1.211-1.211,1.211C242.917,216.9,242.373,216.356,242.373,215.688z M241.546,227.427h4.078v1.217h-4.078V227.427z    M234.096,215.688c0-0.668,0.543-1.211,1.211-1.211s1.211,0.543,1.211,1.211s-0.543,1.211-1.211,1.211   C234.639,216.899,234.096,216.356,234.096,215.688z M233.268,227.427h4.078v1.217h-4.078V227.427z M236.518,296.315   c0,0.668-0.543,1.211-1.211,1.211c-0.667,0-1.211-0.543-1.211-1.211c0-0.669,0.544-1.212,1.211-1.212   C235.974,295.103,236.518,295.646,236.518,296.315z M237.345,284.574h-4.077v-1.216h4.077V284.574z M244.796,296.315   c0,0.668-0.543,1.211-1.211,1.211c-0.668,0-1.212-0.543-1.212-1.211c0-0.669,0.543-1.212,1.212-1.212   C244.252,295.103,244.796,295.646,244.796,296.315z M245.623,284.574h-4.078v-1.216h4.078V284.574z M253.073,296.315   c0,0.668-0.544,1.211-1.211,1.211c-0.668,0-1.212-0.543-1.212-1.211c0-0.669,0.543-1.212,1.212-1.212   C252.53,295.103,253.073,295.646,253.073,296.315z M253.901,284.574h-4.077v-1.216h4.077V284.574z M261.351,296.315   c0,0.668-0.543,1.211-1.212,1.211c-0.668,0-1.211-0.543-1.211-1.211c0-0.669,0.543-1.212,1.211-1.212   C260.808,295.103,261.351,295.646,261.351,296.315z M262.179,284.574h-4.077v-1.216h4.077V284.574z M269.629,296.315   c0,0.668-0.544,1.211-1.212,1.211c-0.669,0-1.212-0.543-1.212-1.211c0-0.669,0.543-1.213,1.212-1.213   C269.085,295.102,269.629,295.646,269.629,296.315z M270.456,284.574h-4.077v-1.216h4.077V284.574z M277.906,296.315   c0,0.668-0.544,1.211-1.212,1.211s-1.212-0.543-1.212-1.211c0-0.669,0.544-1.212,1.212-1.212S277.906,295.646,277.906,296.315z    M278.735,284.574h-4.078v-1.216h4.078V284.574z M282.801,232.99v4.635v3.643v4.635v3.643v4.635v3.642v4.636v3.643v4.635v3.643   v4.635v0.703c0,1.7-1.385,3.084-3.086,3.084h-0.702h-4.636h-3.642H266.1h-3.644h-4.634h-3.643h-4.635h-3.643h-4.635h-3.643h-4.635   h-0.703c-1.7,0-3.084-1.384-3.084-3.084v-47.429c0-1.701,1.383-3.085,3.084-3.085h47.429c1.701,0,3.085,1.384,3.085,3.085v0.703   H282.801z M296.314,275.484c0.668,0,1.212,0.543,1.212,1.212c0,0.668-0.544,1.211-1.212,1.211s-1.212-0.543-1.212-1.211   C295.102,276.027,295.646,275.484,296.314,275.484z M284.574,274.658v4.076h-1.217v-4.076H284.574z M296.314,267.207   c0.668,0,1.212,0.543,1.212,1.212c0,0.668-0.544,1.211-1.212,1.211s-1.212-0.543-1.212-1.211   C295.102,267.75,295.646,267.207,296.314,267.207z M284.574,266.38v4.078h-1.217v-4.078H284.574z M296.314,258.928   c0.668,0,1.212,0.544,1.212,1.213c0,0.668-0.544,1.211-1.212,1.211s-1.212-0.543-1.212-1.211   C295.102,259.472,295.646,258.928,296.314,258.928z M284.574,258.101v4.078h-1.217v-4.078H284.574z"></path></g></svg>