<svg height='100px' width='100px'  fill="#ffffff" xmlns="http://www.w3.org/2000/svg" xmlns:xlink="http://www.w3.org/1999/xlink" version="1.1" x="0px" y="0px" viewBox="206 206 100 100" enable-background="new 206 206 100 100" xml:space="preserve"><path d="M288.869,248.437c-5.1,0-9.359,3.655-10.303,8.482l-18.029-3.017c0.078-0.546,0.121-1.104,0.121-1.671  c0-2.904-1.051-5.567-2.787-7.632l16.586-14.645c1.166,1.204,2.797,1.954,4.602,1.954c0.105,0,0.209-0.003,0.313-0.008  c0.002,0,0.002,0,0.004,0c0,0,0.002,0,0.004,0c3.385-0.167,6.088-2.975,6.088-6.4c0-2.393-1.318-4.481-3.266-5.582  c-0.004-0.002-0.008-0.006-0.014-0.008c-0.926-0.521-1.992-0.819-3.129-0.819c-0.191,0-0.379,0.01-0.564,0.026  c-0.002,0-0.004,0-0.006,0c-3.076,0.273-5.535,2.729-5.813,5.806c0,0.006,0,0.01,0,0.016c-0.016,0.185-0.025,0.372-0.025,0.561  c0,1.52,0.531,2.917,1.42,4.017l-16.586,14.645c-2.172-2.337-5.268-3.804-8.701-3.804c-2.604,0-5.016,0.845-6.975,2.273  l-9.626-12.585c1.563-1.289,2.636-3.146,2.907-5.252c0-0.007,0.003-0.013,0.003-0.02c0.042-0.337,0.066-0.679,0.066-1.027  c0-1.039-0.197-2.033-0.553-2.949c-0.004-0.013-0.01-0.025-0.016-0.038c-0.402-1.02-1.004-1.939-1.758-2.711  c-0.004-0.004-0.005-0.01-0.009-0.014c-0.004-0.003-0.009-0.004-0.012-0.007c-0.756-0.768-1.661-1.389-2.67-1.812  c-0.011-0.005-0.021-0.009-0.033-0.013c-0.96-0.397-2.011-0.619-3.113-0.619c-4.501,0-8.163,3.662-8.163,8.163  c0,1.105,0.222,2.159,0.621,3.122c0.003,0.006,0.006,0.013,0.009,0.02c0.422,1.008,1.04,1.913,1.807,2.668  c0.005,0.006,0.007,0.013,0.012,0.019c0.007,0.006,0.016,0.008,0.022,0.015c0.771,0.75,1.688,1.349,2.703,1.75  c0.015,0.007,0.028,0.012,0.043,0.017c0.915,0.355,1.908,0.552,2.946,0.552c0.348,0,0.689-0.024,1.025-0.067  c0.002,0,0.003,0.001,0.005,0.001c0.008,0,0.015-0.003,0.021-0.004c1.354-0.175,2.605-0.683,3.669-1.44l9.627,12.586  c-2.702,2.179-4.436,5.513-4.436,9.246c0,2.975,1.103,5.694,2.916,7.78l-13.21,12.053c-0.1-0.102-0.202-0.202-0.307-0.299  c-0.004-0.004-0.006-0.01-0.011-0.016c-0.005-0.005-0.013-0.007-0.019-0.012c-0.803-0.731-1.753-1.302-2.798-1.668  c-0.016-0.007-0.031-0.012-0.048-0.017c-0.829-0.283-1.718-0.44-2.643-0.44c-4.501,0-8.163,3.661-8.163,8.163  c0,0.923,0.156,1.811,0.44,2.638c0.005,0.019,0.01,0.037,0.019,0.054c0.365,1.043,0.935,1.99,1.663,2.792  c0.006,0.008,0.009,0.017,0.016,0.023c0.005,0.006,0.013,0.007,0.018,0.012c0.724,0.787,1.6,1.432,2.58,1.887  c0.01,0.004,0.019,0.009,0.028,0.012c1.036,0.478,2.187,0.745,3.399,0.745c0.113,0,0.226-0.004,0.338-0.009  c0,0,0.001,0.001,0.002,0.001s0.001-0.001,0.002-0.001c4.229-0.175,7.637-3.583,7.813-7.812v-0.001  c0.005-0.113,0.009-0.227,0.009-0.341c0-1.214-0.269-2.366-0.745-3.402c-0.003-0.009-0.007-0.015-0.01-0.021  c-0.313-0.674-0.714-1.297-1.189-1.856l13.21-12.053c2.162,2.255,5.201,3.662,8.564,3.662c1.423,0,2.787-0.252,4.053-0.713  l8.123,20.762c-2.24,1.001-3.805,3.247-3.805,5.854c0,3.534,2.875,6.408,6.408,6.408s6.408-2.874,6.408-6.408  s-2.875-6.409-6.408-6.409c-0.721,0-1.412,0.121-2.061,0.342l-8.122-20.763c3.604-1.519,6.304-4.767,7.062-8.699l18.027,3.017  c-0.064,0.473-0.1,0.954-0.1,1.443c0,5.791,4.711,10.503,10.5,10.503c5.793,0,10.504-4.712,10.504-10.503  C299.373,253.149,294.66,248.437,288.869,248.437z M280.184,231.214l4.59-4.589C284.319,228.935,282.494,230.76,280.184,231.214z   M277.635,219.853l-4.225,4.225C273.932,222.007,275.567,220.375,277.635,219.853z M273.817,228.034  c-0.373-0.767-0.582-1.626-0.582-2.534c0-0.147,0.008-0.292,0.018-0.437l5.369-5.368c0.145-0.011,0.291-0.019,0.438-0.019  c0.908,0,1.768,0.209,2.533,0.581l-0.994,0.996c-0.113,0.114-0.113,0.299,0,0.413c0.057,0.057,0.131,0.086,0.207,0.086  c0.074,0,0.148-0.029,0.207-0.086l1.113-1.114c0.715,0.445,1.326,1.041,1.791,1.742l-1.176,1.177c-0.113,0.115-0.113,0.3,0,0.414  c0.057,0.057,0.131,0.086,0.207,0.086c0.074,0,0.148-0.029,0.207-0.086l1.068-1.07c0.422,0.805,0.66,1.718,0.66,2.686  c0,0.065-0.004,0.129-0.006,0.193l-5.625,5.626c-0.064,0.002-0.129,0.005-0.193,0.005c-0.969,0-1.883-0.239-2.688-0.66l4.844-4.844  c0.115-0.114,0.115-0.3,0-0.414c-0.113-0.114-0.299-0.114-0.412,0l-4.951,4.951c-0.701-0.464-1.297-1.076-1.74-1.792l4.451-4.452  c0.115-0.114,0.115-0.3,0-0.414c-0.113-0.114-0.299-0.114-0.412,0L273.817,228.034z M225.38,216.343l-5.786,5.787  C220.223,219.246,222.497,216.972,225.38,216.343z M221.91,229.359l4.881-4.88c0.114-0.114,0.114-0.3,0-0.414  c-0.114-0.114-0.3-0.114-0.414,0l-4.884,4.883c-0.583-0.617-1.063-1.331-1.415-2.116l4.06-4.06c0.114-0.114,0.114-0.299,0-0.414  s-0.3-0.114-0.413,0l-3.883,3.882c-0.273-0.782-0.424-1.622-0.424-2.495c0-0.217,0.011-0.431,0.029-0.644l6.905-6.906  c0.213-0.018,0.427-0.029,0.644-0.029c0.874,0,1.713,0.15,2.494,0.423l-3.319,3.32c-0.114,0.114-0.114,0.299,0,0.413  c0.057,0.058,0.132,0.086,0.206,0.086c0.075,0,0.15-0.028,0.207-0.086l3.498-3.498c0.785,0.353,1.5,0.833,2.118,1.418l-3.887,3.884  c-0.114,0.115-0.114,0.3,0,0.414c0.057,0.057,0.132,0.086,0.206,0.086c0.075,0,0.149-0.029,0.207-0.086l3.884-3.882  c0.573,0.631,1.04,1.36,1.375,2.156l-9.917,9.918C223.271,230.4,222.542,229.932,221.91,229.359z M228.913,231.078l0.418-0.418  c0.113-0.114,0.113-0.299,0-0.414c-0.114-0.114-0.3-0.114-0.414,0l-1.022,1.023c-0.295,0.035-0.595,0.055-0.898,0.055  c-0.811,0-1.592-0.13-2.324-0.366l9.536-9.537c0.237,0.732,0.366,1.514,0.366,2.324c0,0.304-0.021,0.603-0.055,0.898l-3.575,3.575  c-0.114,0.114-0.114,0.299,0,0.413c0.057,0.057,0.132,0.086,0.207,0.086s0.149-0.029,0.207-0.086l2.97-2.97  C233.638,228.303,231.554,230.387,228.913,231.078z M213.212,277.776c0-3.304,2.126-6.119,5.081-7.154l-3.729,3.729  c-0.114,0.114-0.114,0.299,0,0.413c0.057,0.058,0.132,0.086,0.206,0.086c0.075,0,0.149-0.028,0.207-0.086l4.44-4.44  c0.445-0.082,0.903-0.126,1.373-0.126c0.696,0,1.371,0.097,2.012,0.273l-9.316,9.317  C213.309,279.146,213.212,278.472,213.212,277.776z M228.368,277.776c0,0.072-0.004,0.145-0.006,0.217l-0.698,0.699  c-0.114,0.114-0.114,0.299,0,0.413c0.057,0.058,0.132,0.086,0.207,0.086c0.074,0,0.149-0.028,0.206-0.086l0.208-0.207  c-0.49,3.283-3.092,5.884-6.374,6.373l3.778-3.779c0.114-0.114,0.114-0.299,0-0.413s-0.299-0.114-0.413,0l-4.271,4.27  c-0.071,0.002-0.144,0.005-0.215,0.005c-0.984,0-1.925-0.19-2.788-0.533l9.832-9.832  C228.178,275.851,228.368,276.792,228.368,277.776z M227.58,274.416l-10.15,10.15c-0.764-0.38-1.455-0.885-2.047-1.487l5.719-5.72  c0.115-0.114,0.115-0.299,0-0.413c-0.113-0.114-0.299-0.114-0.413,0l-5.699,5.698c-0.553-0.657-0.997-1.41-1.303-2.23l9.742-9.741  c0.819,0.305,1.572,0.749,2.23,1.302l-2.939,2.94c-0.113,0.114-0.113,0.299,0,0.413c0.058,0.058,0.133,0.086,0.207,0.086  c0.075,0,0.15-0.028,0.207-0.086l2.959-2.959C226.696,272.96,227.2,273.651,227.58,274.416z M263.563,284.184  c3.211,0,5.824,2.612,5.824,5.824c0,3.211-2.613,5.823-5.824,5.823s-5.824-2.612-5.824-5.823  C257.739,286.797,260.352,284.184,263.563,284.184z M248.783,240.942c3.26,0,6.199,1.39,8.262,3.606l-1.389,1.226  c-1.723-1.833-4.165-2.98-6.873-2.98c-2.049,0-3.946,0.658-5.494,1.772l-1.126-1.471  C244.025,241.742,246.312,240.942,248.783,240.942z M248.783,245.328c-1.471,0-2.834,0.464-3.955,1.25l-1.185-1.548  c1.45-1.038,3.224-1.651,5.14-1.651c2.533,0,4.819,1.071,6.435,2.783l-1.461,1.29C252.5,246.144,250.736,245.328,248.783,245.328z   M255.102,252.232c0,3.484-2.834,6.318-6.318,6.318s-6.318-2.834-6.318-6.318c0-3.484,2.834-6.319,6.318-6.319  S255.102,248.747,255.102,252.232z M244.364,246.933c-1.517,1.267-2.483,3.172-2.483,5.298c0,1.685,0.607,3.23,1.614,4.43  l-1.439,1.314c-1.322-1.548-2.124-3.554-2.124-5.745c0-2.756,1.267-5.222,3.248-6.847L244.364,246.933z M243.889,257.095  c1.251,1.258,2.983,2.039,4.895,2.039c0.784,0,1.537-0.133,2.24-0.375l0.711,1.817c-0.924,0.327-1.917,0.507-2.951,0.507  c-2.48,0-4.725-1.026-6.334-2.676L243.889,257.095z M251.568,258.547c2.003-0.887,3.507-2.696,3.97-4.888l1.926,0.322  c-0.58,2.874-2.555,5.247-5.185,6.382L251.568,258.547z M255.632,253.082c0.035-0.279,0.055-0.563,0.055-0.851  c0-1.644-0.578-3.155-1.542-4.342l1.462-1.291c1.269,1.531,2.03,3.495,2.03,5.633c0,0.398-0.029,0.789-0.08,1.173L255.632,253.082z   M237.494,252.232c0-3.544,1.643-6.71,4.205-8.782l1.125,1.47c-2.121,1.732-3.479,4.367-3.479,7.312  c0,2.343,0.859,4.487,2.277,6.138l-1.367,1.247C238.538,257.636,237.494,255.054,237.494,252.232z M248.783,263.52  c-3.192,0-6.077-1.334-8.133-3.471l1.367-1.248c1.716,1.768,4.114,2.867,6.766,2.867c1.109,0,2.175-0.193,3.164-0.547l0.676,1.726  C251.423,263.283,250.131,263.52,248.783,263.52z M253.167,262.635l-0.675-1.726c2.818-1.209,4.934-3.753,5.545-6.831l1.826,0.305  C259.143,258.111,256.582,261.19,253.167,262.635z M259.961,253.806l-1.828-0.306c0.057-0.415,0.088-0.838,0.088-1.269  c0-2.286-0.818-4.385-2.176-6.02l1.389-1.225c1.646,1.962,2.639,4.489,2.639,7.246C260.073,252.766,260.033,253.291,259.961,253.806  z M288.869,268.857c-5.467,0-9.916-4.448-9.916-9.918c0-0.456,0.033-0.905,0.094-1.346l1.73,0.29  c-0.045,0.346-0.07,0.697-0.07,1.056c0,4.502,3.662,8.163,8.162,8.163c4.502,0,8.164-3.661,8.164-8.163  c0-4.5-3.662-8.163-8.164-8.163c-3.939,0-7.238,2.809-7.996,6.529l-1.73-0.289c0.896-4.551,4.918-7.994,9.727-7.994  c5.471,0,9.918,4.449,9.918,9.917C298.787,264.409,294.34,268.857,288.869,268.857z M281.291,258.939c0-4.178,3.4-7.578,7.578-7.578  c4.18,0,7.578,3.399,7.578,7.578c0,4.18-3.398,7.578-7.578,7.578C284.692,266.517,281.291,263.119,281.291,258.939z"></path></svg>