<svg xmlns="http://www.w3.org/2000/svg" viewBox="0 0 310.12 19.86"><defs><style>.cls-1{fill:#fff;}.cls-2{fill:#ffd400;}</style></defs><g id="Layer_2" data-name="Layer 2"><g id="Layer_1-2" data-name="Layer 1"><path class="cls-1" d="M6.92,15.6h-.4V13.48a4,4,0,0,1-3.6,2.32C1.08,15.8,0,14.68,0,12.62V5.22H.44v7.36c0,1.9.92,2.8,2.54,2.8s2.68-1,3.5-2.44V5.22h.44Z"/><path class="cls-1" d="M18.64,8.22V15.6H18.2V8.26c0-1.88-.76-2.84-2.34-2.84s-2.82,1-3.8,2.5V15.6h-.44V5.22H12l0,2.12A4.56,4.56,0,0,1,15.86,5C17.76,5,18.64,6.18,18.64,8.22Z"/><path class="cls-1" d="M29.9.94V15.6h-.38l-.06-1.78a3.53,3.53,0,0,1-3.28,2c-2.32,0-3.84-2-3.84-5.36,0-3.2,1.5-5.42,4-5.42a3.5,3.5,0,0,1,3.08,1.66V.88Zm-.44,12.2V7.24A3.53,3.53,0,0,0,26.4,5.42c-2.16,0-3.62,1.92-3.6,5s1.32,4.94,3.4,4.94A3.46,3.46,0,0,0,29.46,13.14Z"/><path class="cls-1" d="M41.44,10.68H34.18c.08,3.18,1.58,4.7,3.68,4.7a4.23,4.23,0,0,0,2.94-1.14l.24.34a4.62,4.62,0,0,1-3.18,1.22c-2.52,0-4.14-1.94-4.14-5.3S35.3,5,37.7,5c2.56,0,3.78,2,3.78,4.9C41.48,10.2,41.46,10.46,41.44,10.68ZM41,9.76c0-2.52-1-4.34-3.3-4.34-2,0-3.5,1.58-3.56,4.88H41Z"/><path class="cls-1" d="M49.68,5.14l-.1.38a4,4,0,0,0-.92-.1c-1.56,0-2.42,1.06-3.08,3.3V15.6h-.44V5.22h.38l0,2.58C46.12,5.9,47.08,5,48.66,5A4,4,0,0,1,49.68,5.14Z"/><path class="cls-1" d="M57.28,6.12,57,6.44a4.17,4.17,0,0,0-2.8-1c-1.56,0-2.72.84-2.72,2.16s.78,1.76,2.84,2.32c2.34.64,3.22,1.3,3.22,3s-1.4,2.88-3.38,2.88a5,5,0,0,1-3.5-1.32l.26-.3a4.6,4.6,0,0,0,3.24,1.2c1.66,0,2.92-.88,2.92-2.46s-.7-2-3-2.66S51,9,51,7.58,52.44,5,54.2,5A4.58,4.58,0,0,1,57.28,6.12Z"/><path class="cls-1" d="M65.26,15.2a3.77,3.77,0,0,1-2,.6c-1.4,0-2.26-.86-2.26-2.54V5.62h-1.7v-.4H61V2.6l.44,0V5.22H64.3l-.06.4H61.42v7.62c0,1.4.64,2.14,1.84,2.14a3.46,3.46,0,0,0,1.8-.52Z"/><path class="cls-1" d="M74.4,15.48l-.1.32c-.82-.26-1.2-.78-1.22-2a3.61,3.61,0,0,1-3.36,2,2.88,2.88,0,0,1-3.12-3.08c0-2.12,1.6-3.28,4.06-3.28H73V8.2c0-1.8-.66-2.78-2.64-2.78a7.66,7.66,0,0,0-2.88.66l-.12-.38a7.65,7.65,0,0,1,3-.68c2.2,0,3.08,1.1,3.08,3.14V13.4C73.46,14.78,73.72,15.24,74.4,15.48ZM73,13.24V9.84H70.74c-2.28,0-3.68,1-3.68,2.88a2.46,2.46,0,0,0,2.66,2.66A3.48,3.48,0,0,0,73,13.24Z"/><path class="cls-1" d="M85.2,8.22V15.6h-.44V8.26c0-1.88-.76-2.84-2.34-2.84s-2.82,1-3.8,2.5V15.6h-.44V5.22h.38l0,2.12A4.56,4.56,0,0,1,82.42,5C84.32,5,85.2,6.18,85.2,8.22Z"/><path class="cls-1" d="M96.46.94V15.6h-.38L96,13.82a3.53,3.53,0,0,1-3.28,2c-2.32,0-3.84-2-3.84-5.36,0-3.2,1.5-5.42,4-5.42A3.5,3.5,0,0,1,96,6.68V.88ZM96,13.14V7.24A3.53,3.53,0,0,0,93,5.42c-2.16,0-3.62,1.92-3.6,5s1.32,4.94,3.4,4.94A3.46,3.46,0,0,0,96,13.14Z"/><path class="cls-1" d="M101.8,1.52a.4.4,0,0,1-.8,0,.4.4,0,1,1,.8,0Zm-.18,14.08h-.44V5.22h.44Z"/><path class="cls-1" d="M113.36,8.22V15.6h-.44V8.26c0-1.88-.76-2.84-2.34-2.84s-2.82,1-3.8,2.5V15.6h-.44V5.22h.38l0,2.12A4.56,4.56,0,0,1,110.58,5C112.48,5,113.36,6.18,113.36,8.22Z"/><path class="cls-1" d="M125,5.08a12.25,12.25,0,0,1-3.06.28A3,3,0,0,1,124,8.48c0,2-1.36,3.32-3.54,3.32a4.15,4.15,0,0,1-1.48-.28,1.74,1.74,0,0,0-1,1.5c0,.76.56,1.3,2,1.3h1.74c2,0,3.06,1,3.06,2.42,0,1.76-1.3,2.8-4.14,2.8s-4.14-.76-4.14-2.78h.44c0,1.76,1,2.36,3.7,2.36s3.7-.88,3.7-2.36c0-1.26-1-2-2.64-2h-1.76c-1.58,0-2.4-.7-2.4-1.66a2.09,2.09,0,0,1,1.14-1.72,3,3,0,0,1-1.74-2.92A3.27,3.27,0,0,1,120.46,5c3,0,3.58-.16,4.4-.42Zm-7.66,3.36a2.88,2.88,0,0,0,3.14,3,2.75,2.75,0,0,0,3.08-2.92,3.11,3.11,0,0,0-6.22,0Z"/><path class="cls-1" d="M142.6,8.6c0,5.56-3.32,7-7,7h-4.44V1.7h4.16C139.06,1.7,142.6,2.88,142.6,8.6Zm-7.76-4.26V13h1c1.9,0,3-.94,3-4.36s-1.16-4.26-3-4.26Z"/><path class="cls-1" d="M150.7,12.76H147l-.62,2.84h-3.84l4.12-13.9h4.44l4.12,13.9h-3.92Zm-.58-2.64-1.26-5.78-1.26,5.78Z"/><path class="cls-1" d="M164.46,4.52h-3.28V15.6h-3.7V4.52H154V1.7h10.84Z"/><path class="cls-1" d="M171.56,12.76h-3.68l-.62,2.84h-3.84l4.12-13.9H172l4.12,13.9h-3.92ZM171,10.12l-1.26-5.78-1.26,5.78Z"/><path class="cls-1" d="M190.86,10.32c0,3.2-1.42,5.52-4.14,5.52a3.4,3.4,0,0,1-2.76-1.2v5l-1.84.22V5.06h1.58l.14,1.42A3.83,3.83,0,0,1,187,4.82C189.76,4.82,190.86,7,190.86,10.32Zm-2,0c0-2.74-.8-4-2.38-4A3.21,3.21,0,0,0,184,7.92v5.14a2.71,2.71,0,0,0,2.32,1.28C188,14.34,188.88,13.08,188.88,10.32Z"/><path class="cls-1" d="M199.46,4.94l-.34,1.8a3.31,3.31,0,0,0-.92-.12c-1.32,0-2.08.94-2.52,3v6h-1.84V5.06h1.58l.18,2.14c.56-1.58,1.54-2.38,2.82-2.38A4.48,4.48,0,0,1,199.46,4.94Z"/><path class="cls-1" d="M209,14.56l-.42,1.28a2.12,2.12,0,0,1-2.06-1.58,3.59,3.59,0,0,1-3.14,1.58,3.06,3.06,0,0,1-3.36-3.18c0-2.26,1.7-3.48,4.64-3.48h1.62V8.4c0-1.52-.74-2.08-2.2-2.08a9.44,9.44,0,0,0-2.84.56l-.46-1.34a10.32,10.32,0,0,1,3.64-.72c2.54,0,3.7,1.3,3.7,3.5v4.82C208.16,14.06,208.5,14.36,209,14.56Zm-2.72-1.74V10.4h-1.38c-1.94,0-2.92.72-2.92,2.16a1.66,1.66,0,0,0,1.82,1.9A2.71,2.71,0,0,0,206.32,12.82Z"/><path class="cls-1" d="M219.64,15.6h-2.22l-2.58-4.46-2.62,4.46h-2.08L213.82,10l-3.26-5h2.16l2.2,3.86,2.22-3.86h2.08L216,10Z"/><path class="cls-1" d="M223.78,1.26a1.29,1.29,0,0,1-2.58,0,1.29,1.29,0,0,1,2.58,0Zm-.36,14.34h-1.84V5.06h1.84Z"/><path class="cls-1" d="M233.6,6l-.78,1.16a4.86,4.86,0,0,0-2.74-.9c-1.2,0-1.94.54-1.94,1.38s.56,1.26,2.26,1.7c2.22.56,3.5,1.44,3.5,3.28,0,2.2-2,3.2-4.16,3.2a5.84,5.84,0,0,1-4-1.38l1-1.12a4.78,4.78,0,0,0,3,1c1.38,0,2.26-.6,2.26-1.6s-.52-1.44-2.56-2c-2.28-.6-3.18-1.58-3.18-3.06,0-1.68,1.62-2.9,3.8-2.9A5.6,5.6,0,0,1,233.6,6Z"/><path class="cls-2" d="M240.22,8.22h2.92V9.74h-2.92v3h-1.68v-3h-2.9V8.22h2.9v-3h1.68Z"/><path class="cls-1" d="M255,10.32c0,3.2-1.42,5.52-4.14,5.52a3.4,3.4,0,0,1-2.76-1.2v5l-1.84.22V5.06h1.58l.14,1.42a3.83,3.83,0,0,1,3.12-1.66C253.86,4.82,255,7,255,10.32Zm-2,0c0-2.74-.8-4-2.38-4a3.21,3.21,0,0,0-2.54,1.64v5.14a2.71,2.71,0,0,0,2.32,1.28C252.06,14.34,253,13.08,253,10.32Z"/><path class="cls-1" d="M266.64,10.32c0,3.26-1.72,5.52-4.7,5.52s-4.7-2.16-4.7-5.5S259,4.82,262,4.82,266.64,7,266.64,10.32Zm-7.42,0c0,2.74,1,4,2.72,4s2.72-1.28,2.72-4-1-4-2.7-4S259.22,7.58,259.22,10.34Z"/><path class="cls-1" d="M269.5,13.52V.82L271.34.6V13.48c0,.56.18.84.66.84a1.79,1.79,0,0,0,.68-.12l.48,1.28a3.09,3.09,0,0,1-1.46.36A2.07,2.07,0,0,1,269.5,13.52Z"/><path class="cls-1" d="M277.7,1.26a1.29,1.29,0,0,1-2.58,0,1.29,1.29,0,0,1,2.58,0Zm-.36,14.34H275.5V5.06h1.84Z"/><path class="cls-1" d="M286.4,15.12a4,4,0,0,1-2.36.72c-1.78,0-2.84-1-2.84-3V6.48h-1.84V5.06h1.84V2.68L283,2.46v2.6h2.5l-.2,1.42H283v6.28c0,1.06.34,1.56,1.26,1.56a2.87,2.87,0,0,0,1.4-.42Z"/><path class="cls-1" d="M290.44,1.26a1.29,1.29,0,0,1-2.58,0,1.29,1.29,0,0,1,2.58,0Zm-.36,14.34h-1.84V5.06h1.84Z"/><path class="cls-1" d="M300.88,6,300,7.12a3.61,3.61,0,0,0-2.26-.78c-1.66,0-2.7,1.3-2.7,4s1,3.9,2.7,3.9a3.91,3.91,0,0,0,2.3-.8l.84,1.2a5,5,0,0,1-3.22,1.16c-2.84,0-4.6-2-4.6-5.42s1.74-5.6,4.6-5.6A4.68,4.68,0,0,1,300.88,6Z"/><path class="cls-1" d="M309.82,6,309,7.18a4.86,4.86,0,0,0-2.74-.9c-1.2,0-1.94.54-1.94,1.38s.56,1.26,2.26,1.7c2.22.56,3.5,1.44,3.5,3.28,0,2.2-2,3.2-4.16,3.2a5.84,5.84,0,0,1-4-1.38l1-1.12a4.78,4.78,0,0,0,3,1c1.38,0,2.26-.6,2.26-1.6s-.52-1.44-2.56-2c-2.28-.6-3.18-1.58-3.18-3.06,0-1.68,1.62-2.9,3.8-2.9A5.6,5.6,0,0,1,309.82,6Z"/></g></g></svg>