<svg id="Layer_1" data-name="Layer 1" xmlns="http://www.w3.org/2000/svg" viewBox="0 0 500 500"><defs><style>.cls-1{fill:none;}.cls-2{fill:#ed6d4a;}.cls-3{fill:#d8ebef;}.cls-4{fill:#b4c9cc;}.cls-5{fill:#db5f42;}.cls-6{fill:#b2462d;}.cls-7{fill:#c15436;}.cls-8{fill:#933627;}</style></defs><polygon class="cls-1" points="125.47 265.1 318.49 72.07 95.99 294.58 125.47 265.1"/><polygon class="cls-2" points="126.12 265.74 185.08 265.74 289.66 161.16 319.14 131.68 419.46 232.01 389.98 261.49 285.4 366.07 255.92 395.55 226.44 425.03 256.57 455.16 479.07 232.65 318.49 72.07 125.47 265.1 126.12 265.74"/><polygon class="cls-3" points="257.67 68.67 247.46 65.93 38.48 274.91 66.79 303.22 187.16 423.59 199.66 426.94 49.53 276.81 257.67 68.67"/><polygon class="cls-3" points="274.44 73.16 279.52 74.53 72.36 281.69 80.34 289.67 285.94 84.07 292.11 77.9 275.24 73.38 275.24 73.38 274.44 73.16"/><polygon class="cls-3" points="66.25 281.29 274.39 73.15 257.72 68.68 262.8 70.05 55.64 277.2 207.47 429.03 216.14 431.35 77.4 292.61 77.48 292.52 66.25 281.29"/><polygon class="cls-4" points="262.8 70.05 257.72 68.68 257.67 68.67 49.53 276.81 199.66 426.94 207.47 429.03 55.64 277.2 262.8 70.05"/><polygon class="cls-4" points="77.48 292.52 80.34 289.67 72.36 281.69 279.52 74.53 274.44 73.16 274.39 73.15 66.25 281.29 77.48 292.52"/><polygon class="cls-5" points="257.63 55.77 257.63 55.76 242.5 51.71 257.63 55.76 257.63 55.77"/><polygon class="cls-5" points="302.28 67.73 302.28 67.73 318.49 72.07 302.28 67.73"/><polygon class="cls-5" points="196.96 395.55 95.99 294.58 83.98 293.31 224.81 434.14 217 432.05 77.59 292.63 77.4 292.61 216.14 431.35 207.47 429.03 208.09 429.66 200.29 427.57 199.66 426.94 187.16 423.59 38.48 274.91 20 274.22 180.58 434.8 256.57 455.16 226.44 425.03 226.44 425.03 196.96 395.55"/><polygon class="cls-5" points="38.48 274.91 187.16 423.59 66.79 303.22 38.48 274.91"/><polygon class="cls-5" points="200.29 427.57 208.09 429.66 207.47 429.03 199.66 426.94 200.29 427.57"/><polygon class="cls-5" points="217 432.05 224.81 434.14 83.98 293.31 77.59 292.63 217 432.05"/><polygon class="cls-6" points="275.24 73.38 257.63 55.76 247.46 65.93 275.24 73.38"/><polygon class="cls-6" points="257.67 68.67 257.67 68.67 257.72 68.68 274.39 73.15 274.39 73.15 274.44 73.16 275.24 73.38 275.24 73.38 247.46 65.93 257.67 68.67"/><polygon class="cls-6" points="257.67 68.67 257.67 68.67 257.72 68.68 257.67 68.67"/><polygon class="cls-6" points="274.39 73.15 274.39 73.15 274.44 73.16 274.39 73.15"/><polygon class="cls-7" points="80.34 289.67 83.98 293.31 95.99 294.58 318.49 72.07 302.28 67.73 292.11 77.9 285.94 84.07 80.34 289.67"/><polygon class="cls-7" points="77.4 292.61 77.59 292.63 77.48 292.52 77.4 292.61"/><polygon class="cls-7" points="77.48 292.52 77.59 292.63 83.98 293.31 80.34 289.67 77.48 292.52"/><polygon class="cls-7" points="247.46 65.93 257.63 55.76 242.5 51.71 20 274.22 38.48 274.91 247.46 65.93"/><polygon class="cls-8" points="419.46 232.01 319.14 131.68 289.66 161.16 360.5 232.01 419.46 232.01"/><polygon class="cls-7" points="360.5 232.01 389.98 261.49 360.5 232.01 360.5 232.01"/><polygon class="cls-7" points="389.98 261.49 419.46 232.01 360.5 232.01 389.98 261.49"/><rect class="cls-8" x="184.91" y="265.81" width="41.69" height="100.19" transform="translate(-163.11 238.02) rotate(-45)"/><rect class="cls-7" x="211.7" y="389.44" height="41.69"/><rect class="cls-7" x="205.59" y="374.7" width="41.69" height="41.69" transform="translate(-213.37 275.97) rotate(-45)"/><polygon class="cls-7" points="226.44 425.03 226.44 425.03 196.96 395.55 226.44 425.03"/><rect class="cls-7" x="249" y="278.19" width="147.9" height="41.69" transform="translate(-116.86 315.95) rotate(-45)"/><polygon class="cls-7" points="226.44 366.07 226.44 366.07 255.92 395.55 285.4 366.07 255.92 336.58 226.44 366.07"/><polygon class="cls-8" points="185.08 265.74 126.12 265.74 155.6 295.22 185.08 265.74"/><polygon class="cls-7" points="95.99 294.58 125.47 265.1 95.99 294.58 196.96 395.55 196.96 395.55 95.99 294.58"/><polygon class="cls-7" points="196.96 395.55 226.44 366.07 155.6 295.22 126.12 265.74 125.47 265.1 95.99 294.58 196.96 395.55"/><polygon class="cls-7" points="196.96 395.55 196.96 395.55 196.96 395.55 196.96 395.55"/><rect class="cls-7" x="190.85" y="380.81" width="41.69" transform="translate(-207.27 261.23) rotate(-45)"/></svg>