<?xml version="1.0" encoding="utf-8"?>
<!-- Generator: Adobe Illustrator 25.2.0, SVG Export Plug-In . SVG Version: 6.00 Build 0)  -->
<svg version="1.1" id="Layer_1" xmlns="http://www.w3.org/2000/svg" xmlns:xlink="http://www.w3.org/1999/xlink" x="0px" y="0px"
	 viewBox="0 0 500 500" style="enable-background:new 0 0 500 500;" xml:space="preserve">
<style type="text/css">
	.st0{fill:#4D5970;}
	.st1{fill:#BED1D3;}
	.st2{fill:#9FB6B7;}
	.st3{fill:#D8EBEF;}
	.st4{fill:#B4C9CC;}
	.st5{fill:#353B47;}
	.st6{fill:#5B687C;}
	.st7{fill:#414B63;}
</style>
<polygon class="st0" points="323,122.3 63.8,122.3 63.8,178.8 63.8,381.5 75.2,392.9 75.2,367.6 108.9,401.3 108.9,426.7 120.3,438 
	120.3,381.5 120.3,178.8 323,178.8 "/>
<polygon class="st0" points="323,122.3 63.8,122.3 63.8,178.8 63.8,381.5 75.2,392.9 75.2,367.6 108.9,401.3 108.9,426.7 120.3,438 
	120.3,381.5 120.3,178.8 323,178.8 "/>
<polygon class="st0" points="323,122.3 63.8,122.3 63.8,178.8 63.8,381.5 75.2,392.9 75.2,367.6 108.9,401.3 108.9,426.7 120.3,438 
	120.3,381.5 120.3,178.8 323,178.8 "/>
<polygon class="st1" points="99.4,391.8 99.4,391.8 99.4,391.8 108.9,401.3 108.9,167.2 99.4,157.7 "/>
<polygon class="st1" points="75.3,133.5 75.3,367.5 83,375.2 83,141.2 "/>
<polygon class="st1" points="86.8,379.1 95.6,387.9 95.6,153.8 86.8,145.1 "/>
<polygon class="st2" points="83,141.2 83,375.2 86.8,379.1 86.8,145.1 "/>
<polygon class="st2" points="95.6,153.8 95.6,387.9 99.4,391.8 99.4,157.7 "/>
<polygon class="st3" points="75.3,133.5 323,133.5 323,141.2 83,141.2 "/>
<polygon class="st3" points="323,145.1 323,153.8 95.6,153.8 86.8,145.1 "/>
<polygon class="st4" points="83,141.2 323,141.2 323,145.1 86.8,145.1 "/>
<polygon class="st4" points="95.6,153.8 323,153.8 323,157.7 99.4,157.7 "/>
<polyline class="st4" points="333.5,157.7 99.4,157.7 99.4,157.7 "/>
<polygon class="st3" points="333.5,157.7 333.5,157.7 323,157.7 323,167.2 108.9,167.2 99.4,157.7 "/>
<polygon class="st5" points="75.3,367.5 75.3,392.9 100.6,392.9 "/>
<polygon class="st6" points="120.3,122.3 323,122.3 323,325 379.5,325 379.5,65.8 323,65.8 120.3,65.8 63.8,122.3 "/>
<polygon class="st7" points="176.8,381.5 436,381.5 436,325 436,122.3 424.6,110.9 424.6,136.2 390.8,102.5 390.8,77.1 379.5,65.8 
	379.5,122.3 379.5,325 176.8,325 "/>
<polygon class="st3" points="400.3,112 400.3,112 400.3,112 390.8,102.5 390.8,336.6 400.3,346.1 "/>
<polygon class="st3" points="424.5,370.3 424.5,136.3 416.8,128.6 416.8,362.6 "/>
<polygon class="st3" points="412.9,124.7 404.2,115.9 404.2,350 412.9,358.7 "/>
<polygon class="st4" points="416.8,362.6 416.8,128.6 412.9,124.7 412.9,358.7 "/>
<polygon class="st4" points="404.2,350 404.2,115.9 400.3,112 400.3,346.1 "/>
<polygon class="st1" points="424.5,370.3 176.8,370.3 176.8,362.6 416.8,362.6 "/>
<polygon class="st1" points="176.8,358.7 176.8,350 404.2,350 412.9,358.7 "/>
<polygon class="st2" points="416.8,362.6 176.8,362.6 176.8,358.7 412.9,358.7 "/>
<polygon class="st2" points="404.2,350 176.8,350 176.8,346.1 400.3,346.1 "/>
<polyline class="st4" points="166.2,346.1 400.3,346.1 400.3,346.1 "/>
<polygon class="st1" points="166.2,346.1 166.2,346.1 176.8,346.1 176.8,336.6 390.8,336.6 400.3,346.1 "/>
<polygon class="st6" points="379.5,381.5 176.8,381.5 176.8,177.6 120.3,177.6 120.3,438 176.8,438 379.5,438 436,381.5 "/>
<polygon class="st5" points="424.5,136.3 424.5,110.9 399.2,110.9 "/>
<polygon class="st0" points="379.5,325 391,336.5 176.8,336.5 176.8,325 "/>
<polygon class="st7" points="108.9,167.2 120.4,178.6 323,178.6 323,167.2 "/>
</svg>
