<svg id="Layer_1" data-name="Layer 1" xmlns="http://www.w3.org/2000/svg" viewBox="0 0 500 500"><defs><style>.cls-1{fill:#fce5b9;}.cls-2{fill:#7b9daa;}.cls-3{fill:#668791;}.cls-4{fill:#4b6063;}.cls-5{fill:#d8ebef;}.cls-6{fill:#b4c9cc;}</style></defs><circle class="cls-1" cx="250" cy="250" r="250"/><polygon class="cls-2" points="197.09 335.84 235.15 269.91 340.72 269.91 211.97 46.83 288.09 46.83 454.91 335.84 197.09 335.84"/><polygon class="cls-3" points="340.79 269.9 264.67 269.9 211.88 178.47 83.06 401.52 45 335.6 211.88 46.62 340.79 269.9"/><polygon class="cls-4" points="211.88 178.46 249.94 244.38 197.15 335.81 454.73 335.85 416.66 401.77 82.97 401.74 211.88 178.46"/><polygon class="cls-5" points="128.6 346.89 448.35 346.89 423.01 390.78 103.14 390.78 128.6 346.89"/><polygon class="cls-6" points="443.28 355.67 123.41 355.67 118.42 364.45 438.21 364.45 443.28 355.67"/><polygon class="cls-6" points="433.15 373.22 113.33 373.22 108.24 382 428.08 382 433.15 373.22"/></svg>